<svg width="20" height="19" viewBox="0 0 20 19" fill="none" xmlns="http://www.w3.org/2000/svg">
<path d="M19.0908 10.4091C18.8181 10.4091 18.6363 10.5909 18.6363 10.8636V16.7727C18.6363 17.0454 18.4544 17.2272 18.1817 17.2272H1.81806C1.54533 17.2272 1.36353 17.0454 1.36353 16.7727V10.8636C1.36353 10.5909 1.18169 10.4091 0.908999 10.4091C0.636304 10.4091 0.454468 10.5909 0.454468 10.8636V16.7727C0.454468 17.5454 1.04537 18.1363 1.8181 18.1363H18.1817C18.9545 18.1363 19.5454 17.5454 19.5454 16.7727V10.8636C19.5454 10.5909 19.3635 10.4091 19.0908 10.4091Z" fill="white"/>
<path d="M18.6364 4.04541H1.36363C0.590898 4.04541 0 4.63631 0 5.40904V8.31814C0 8.95447 0.454531 9.49994 1.04547 9.63631L8.18184 11.2272V12.6817C8.18184 12.9545 8.36367 13.1363 8.63637 13.1363H11.3636C11.6364 13.1363 11.8182 12.9544 11.8182 12.6817V11.2272L18.9545 9.63631C19.5455 9.49994 20 8.95447 20 8.3181V5.409C20 4.63631 19.4091 4.04541 18.6364 4.04541ZM10.9091 12.2272H9.09094V10.409H10.9091V12.2272ZM19.0909 8.3181C19.0909 8.54537 18.9545 8.72721 18.7273 8.77264L11.8182 10.3181V9.95447C11.8182 9.68174 11.6363 9.49994 11.3636 9.49994H8.63637C8.36363 9.49994 8.18184 9.68178 8.18184 9.95447V10.3181L1.27273 8.77268C1.04547 8.72721 0.909102 8.54541 0.909102 8.31814V5.40904C0.909102 5.13631 1.09094 4.95451 1.36363 4.95451H18.6364C18.9091 4.95451 19.0909 5.13635 19.0909 5.40904V8.3181Z" fill="white"/>
<path d="M12.2727 0.863647H7.72728C6.95455 0.863647 6.36365 1.45455 6.36365 2.22728V2.68181C6.36365 2.95455 6.54548 3.13634 6.81818 3.13634C7.09087 3.13634 7.27271 2.95451 7.27271 2.68181V2.22728C7.27271 1.95455 7.45455 1.77275 7.72724 1.77275H12.2727C12.5454 1.77275 12.7272 1.95459 12.7272 2.22728V2.68181C12.7272 2.95455 12.9091 3.13634 13.1818 3.13634C13.4545 3.13634 13.6363 2.95451 13.6363 2.68181V2.22728C13.6364 1.45455 13.0455 0.863647 12.2727 0.863647Z" fill="white"/>
</svg>
