<svg width="15" height="14" viewBox="0 0 15 14" fill="none" xmlns="http://www.w3.org/2000/svg">
<path d="M3.28125 3.75012H0.46875C0.209656 3.75012 0 3.95978 0 4.21887V12.6564C0 12.9155 0.209656 13.1251 0.46875 13.1251H3.28125C3.54035 13.1251 3.75 12.9155 3.75 12.6564V4.21887C3.75 3.95978 3.54035 3.75012 3.28125 3.75012Z" fill="white"/>
<path d="M13.2687 4.68744H10.4993C10.2571 4.68744 10.1358 4.52585 10.0951 4.45627C10.0543 4.38714 9.97193 4.20266 10.0891 3.99118L11.0655 2.2329C11.2798 1.84793 11.3017 1.3952 11.1264 0.990989C10.9511 0.586326 10.605 0.292899 10.177 0.186241L9.48852 0.0141211C9.32098 -0.0279932 9.14337 0.0255652 9.02664 0.155113L5.28854 4.30795C4.90082 4.73962 4.6875 5.29626 4.6875 5.87579V9.84368C4.6875 11.136 5.73898 12.1874 7.03125 12.1874L11.6945 12.187C12.7474 12.187 13.6771 11.4779 13.9549 10.463L14.9556 6.80824C14.9849 6.68053 15 6.54961 15 6.41869C15 5.46425 14.2232 4.68742 13.2687 4.68742L13.2687 4.68744ZM14.0465 6.57846L13.0504 10.2154C12.8838 10.8242 12.3262 11.2499 11.6945 11.2499H7.03125C6.2558 11.2499 5.625 10.6191 5.625 9.84369V5.87579C5.625 5.52789 5.75318 5.19373 5.98572 4.93509L9.53476 0.991913L9.94949 1.09537C10.0923 1.13107 10.2077 1.22904 10.2663 1.36408C10.3249 1.49866 10.3175 1.64926 10.2461 1.77789L9.26972 3.53617C9.02527 3.97608 9.03168 4.49793 9.28711 4.93189C9.54255 5.36585 9.99573 5.62494 10.4993 5.62494H13.2687C13.7064 5.62494 14.0625 5.98108 14.0625 6.41871C14.0625 6.47822 14.0556 6.53818 14.0465 6.57847V6.57846Z" fill="white"/>
</svg>
