<svg width="12" height="9" viewBox="0 0 12 9" fill="none" xmlns="http://www.w3.org/2000/svg">
<path d="M11.9616 6.39353C11.9858 6.41192 12 6.44092 12 6.47141C12 6.50191 11.9858 6.53091 11.9616 6.54929L9.54807 8.40502C9.51281 8.43197 9.46407 8.43225 9.4288 8.40555C9.3934 8.37872 9.38034 8.33189 9.39653 8.29064L9.79873 7.2728C7.97078 7.20404 6.93453 6.55134 6.20969 5.79393C6.4794 5.48624 6.70322 5.17433 6.90745 4.88976C7.00873 4.74829 7.10596 4.61338 7.20346 4.48429C7.75322 5.13073 8.42241 5.59268 9.79302 5.65547L9.39655 4.65205C9.3805 4.6108 9.39356 4.56397 9.42882 4.53713C9.44637 4.5241 9.46722 4.51728 9.48804 4.51728C9.50914 4.51728 9.53052 4.5241 9.54821 4.53757L11.9616 6.39353ZM2.45193 3.8877C2.46969 3.90139 2.49086 3.90804 2.51205 3.90804C2.5328 3.90804 2.5539 3.90125 2.57134 3.8881C2.60674 3.86147 2.61994 3.8145 2.60354 3.77325L2.21021 2.77711C3.57469 2.86411 4.24572 3.33507 4.79684 3.98477C4.89303 3.85748 4.98895 3.7246 5.08873 3.58531C5.29399 3.29913 5.51931 2.98525 5.79086 2.67523C5.06477 1.91457 4.02777 1.25422 2.19901 1.15858L2.60352 0.134732C2.61978 0.0934774 2.60658 0.0466488 2.57132 0.0198138C2.53598 -0.00681378 2.48726 -0.00653736 2.45211 0.0204358L0.038329 1.87608C0.014097 1.89446 0 1.92346 0 1.95396C0 1.98452 0.0142352 2.01352 0.038329 2.0319L2.45193 3.8877ZM6.65448 4.70855C7.37539 3.70341 7.9573 2.89408 9.78972 2.77725L9.39653 3.77339C9.38034 3.81464 9.3934 3.86147 9.42869 3.88823C9.44638 3.90136 9.46706 3.90818 9.48804 3.90818C9.50901 3.90818 9.53024 3.90139 9.54807 3.88782L11.9616 2.03202C11.9858 2.01364 12 1.98464 12 1.95407C12 1.92357 11.9858 1.89457 11.9616 1.87619L9.54807 0.0204126C9.51281 -0.00656056 9.46407 -0.0068368 9.4288 0.0197908C9.3934 0.0466257 9.38034 0.0934544 9.39653 0.134709L9.80117 1.15856C7.1122 1.29941 6.13423 2.66069 5.34109 3.76652C4.62242 4.76886 4.04562 5.57133 2.20712 5.65547L2.60352 4.65205C2.61978 4.6108 2.60658 4.56397 2.57132 4.53713C2.5539 4.5241 2.53292 4.51728 2.51202 4.51728C2.49097 4.51728 2.46969 4.5241 2.45191 4.53757L0.038329 6.39353C0.014097 6.41192 0 6.44092 0 6.47141C0 6.50191 0.0142352 6.53091 0.038329 6.54929L2.45193 8.40502C2.48726 8.43197 2.536 8.43225 2.57113 8.40555C2.6066 8.37872 2.6198 8.33189 2.6034 8.29064L2.20127 7.2728C4.8869 7.17191 5.86418 5.81081 6.65448 4.70855Z" fill="#EA0091"/>
</svg>
