<svg width="10" height="14" viewBox="0 0 10 14" fill="none" xmlns="http://www.w3.org/2000/svg">
<path d="M0.00170254 3.88211C0.0703717 3.51329 0.12088 3.14049 0.21225 2.77736C0.449471 1.82888 0.998824 1.12931 1.88698 0.688318C3.34663 -0.0402305 4.84146 -0.22663 6.40496 0.304154C7.42649 0.649675 8.12396 1.32708 8.53257 2.31704C9.04193 3.53579 9.16476 4.88189 8.88443 6.17289C8.574 7.65386 7.57234 8.45515 6.12972 8.741C4.92716 8.97912 3.72857 8.97286 2.54927 8.58927C2.51066 8.58265 2.47153 8.5796 2.43236 8.58018C2.43236 8.72509 2.43236 8.86432 2.43236 9.00298C2.43236 9.99352 2.4352 10.984 2.43236 11.9751C2.43236 12.7969 1.95054 13.2743 1.13503 13.2782C0.756685 13.2782 0.378343 13.2807 0 13.2856L0.00170254 3.88211ZM4.53217 7.1299C5.23248 7.14751 5.89874 7.04863 6.51846 6.73834C7.09449 6.45079 7.49913 6.00923 7.54737 5.35171C7.62285 4.31742 7.2341 3.49852 6.31756 2.95409C5.88115 2.69495 5.45721 2.41365 5.03158 2.13632C4.71547 1.93003 4.3971 1.92776 4.08156 2.13121C3.66273 2.40115 3.24561 2.67506 2.81544 2.92682C2.19798 3.28882 1.79732 3.79801 1.61174 4.49473C1.3416 5.50856 1.73375 6.35759 2.69512 6.79006C3.2859 7.05431 3.90506 7.14524 4.53217 7.1299Z" fill="#EA0091"/>
<path d="M5.12232 4.8591C5.12232 4.74544 5.11324 4.63178 5.12232 4.51812C5.13434 4.38135 5.19454 4.25332 5.29217 4.15691C5.3898 4.06051 5.51848 4.00201 5.65522 3.99189C5.98438 3.96631 6.2443 4.1118 6.2897 4.41697C6.33321 4.71324 6.33474 5.01419 6.29424 5.31089C6.25395 5.6081 5.98778 5.76268 5.66373 5.74506C5.5267 5.73593 5.39733 5.67845 5.29862 5.58283C5.19991 5.48721 5.13825 5.35965 5.12459 5.2228C5.11835 5.1007 5.11835 4.97836 5.12459 4.85626L5.12232 4.8591Z" fill="#EA0091"/>
<path d="M2.78251 4.86241C2.78251 4.74875 2.7757 4.63509 2.78251 4.52144C2.80634 4.20376 3.06229 3.98213 3.39258 3.98667C3.53946 3.98387 3.68161 4.03873 3.78862 4.13951C3.89563 4.2403 3.95901 4.37901 3.96521 4.52598C3.97656 4.74137 3.9811 4.95845 3.97202 5.17383C3.95669 5.52731 3.71947 5.74553 3.37102 5.74553C3.02257 5.74553 2.79669 5.53072 2.78251 5.17213C2.77853 5.06927 2.78251 4.96584 2.78251 4.86241Z" fill="#EA0091"/>
</svg>
