<svg width="13" height="13" viewBox="0 0 13 13" fill="none" xmlns="http://www.w3.org/2000/svg">
<path d="M12.1849 4.76137L9.89518 6.50134V5.16574C9.89518 4.88525 9.66785 4.65793 9.38736 4.65793H0.507816C0.227327 4.65793 0 4.88525 0 5.16574V12.4922C0 12.7726 0.227327 12.9999 0.507816 12.9999H9.38736C9.66785 12.9999 9.89518 12.7726 9.89518 12.4922V11.1565L12.1849 12.8965C12.5162 13.1482 13 12.9135 13 12.4922V5.16574C13 4.74669 12.5189 4.50756 12.1849 4.76137ZM8.87955 11.9844H1.01563V5.67356H8.87955V11.9844ZM11.9844 11.4684L9.89518 9.8809V7.77703L11.9844 6.18941V11.4684ZM2.2335 2.01192C3.29109 0.733358 4.84618 0 6.49995 0C8.15373 0 9.70881 0.733358 10.7665 2.01192C10.9452 2.22804 10.915 2.54821 10.6989 2.72693C10.4833 2.90517 10.1631 2.87601 9.98385 2.65929C9.11987 1.6147 7.85003 1.01563 6.49995 1.01563C5.14997 1.01563 3.88013 1.6147 3.01615 2.65929C2.83742 2.87541 2.51726 2.90576 2.30114 2.72693C2.08502 2.54821 2.05477 2.22804 2.2335 2.01192ZM8.33632 2.82989C8.57496 2.97717 8.64895 3.29009 8.50166 3.52873C8.35457 3.76687 8.04185 3.84165 7.80272 3.69397C7.41164 3.45246 6.96115 3.32481 6.49995 3.32481C6.03885 3.32481 5.58836 3.45246 5.19718 3.69397C4.95855 3.84135 4.64573 3.76736 4.49834 3.52873C4.35096 3.29009 4.42495 2.97717 4.66358 2.82989C5.21523 2.48919 5.8502 2.30918 6.49995 2.30918C7.1498 2.30918 7.78477 2.48919 8.33632 2.82989Z" fill="white"/>
</svg>
