<svg width="26" height="25" viewBox="0 0 26 25" fill="none" xmlns="http://www.w3.org/2000/svg">
<path d="M19.8906 5.27412V0.528021C19.8906 0.0319311 19.2516 -0.198694 18.9418 0.211052C18.9342 0.221177 18.1623 1.23487 16.7836 2.23141C14.9586 3.55054 12.9877 4.21943 10.9258 4.21943H7.16406C5.4194 4.21943 4 5.63883 4 7.38349C4 9.12815 5.4194 10.5476 7.16406 10.5476V16.3483C7.16406 16.6396 7.40017 16.8757 7.69141 16.8757H10.9258C11.217 16.8757 11.4531 16.6396 11.4531 16.3483C11.4417 16.2311 11.5397 15.2258 10.959 13.8851C10.5766 13.0019 10.3984 12.2704 10.3984 11.5829V10.5476H10.9258C12.9877 10.5476 14.9586 11.2164 16.7837 12.5356C18.1624 13.5321 18.9342 14.5458 18.9414 14.5554C19.2465 14.9612 19.8906 14.7409 19.8906 14.239V9.49287C21.0537 9.49287 22 8.5466 22 7.38349C22 6.22038 21.0537 5.27412 19.8906 5.27412ZM8.21875 15.821V10.5476H9.34375V11.5829C9.34375 12.4195 9.54948 13.2842 9.99122 14.3042C10.2105 14.8105 10.342 15.3192 10.3838 15.821H8.21875ZM10.3984 9.49287C10.3984 9.49287 7.42826 9.49287 7.16406 9.49287C6.00095 9.49287 5.05469 8.5466 5.05469 7.38349C5.05469 6.22038 6.00095 5.27412 7.16406 5.27412H10.3984V9.49287ZM18.8359 12.8819C18.4689 12.5269 17.9991 12.1153 17.4323 11.7031C15.5983 10.3693 13.5416 9.61609 11.4531 9.50717V5.25977C13.5416 5.15086 15.5983 4.39767 17.4323 3.06384C17.9991 2.6516 18.4689 2.24006 18.8359 1.88512V12.8819ZM19.8906 8.43818V6.3288C20.4722 6.3288 20.9453 6.80194 20.9453 7.38349C20.9453 7.96504 20.4722 8.43818 19.8906 8.43818Z" fill="white"/>
</svg>
