<svg width="20" height="20" viewBox="0 0 20 20" fill="none" xmlns="http://www.w3.org/2000/svg">
<path d="M19.5297 8.99631C14.3947 9.1457 9.29095 9.72938 4.16639 9.89962C8.39806 8.12426 12.9911 7.45373 17.3478 5.998C17.7508 5.85903 17.8377 5.17807 17.3478 5.09469C13.2273 4.35119 9.218 6.06054 5.12529 5.92504C7.65457 4.79938 10.4409 4.31993 13.0154 3.26722C13.4392 3.08656 13.4288 2.38475 12.8973 2.4056C11.2922 2.45771 9.63491 2.83988 8.02979 2.65922C8.99564 2.09639 9.9337 1.48839 10.7502 0.703199C11.0594 0.404411 10.7397 -0.0819888 10.3471 0.0118168C9.5828 0.182057 8.67948 0.331451 8.17918 0.967244C8.02979 1.15833 8.10623 1.39111 8.25214 1.50923C7.71016 1.83929 7.15775 2.15892 6.59491 2.46466C6.25443 2.65574 6.35171 3.14562 6.70262 3.26374C7.58508 3.55211 8.4884 3.60422 9.39171 3.56253C7.31756 4.17748 5.23647 4.75421 3.34298 5.84861C3.03377 6.02927 3.05462 6.60253 3.45069 6.65812C7.2446 7.26264 10.9656 5.84861 14.7317 5.81734C10.3194 7.04029 5.79235 7.82548 1.69618 10.0177C1.27231 10.2401 1.47382 10.9211 1.93937 10.9106C6.53238 10.8794 11.0941 10.4208 15.6767 10.1463C13.9639 10.6258 12.2441 11.0601 10.5209 11.4527C7.04309 12.2517 3.72866 13.3357 0.337731 14.4301C-0.162566 14.5899 -0.0965542 15.4098 0.466279 15.3751C3.22139 15.2153 5.87921 14.5343 8.57873 14.0584C11.4068 13.5581 14.4989 13.228 17.4243 13.1134C15.2146 15.1667 10.4062 14.6351 7.78315 15.3786C7.31412 15.5071 7.31412 16.1881 7.78315 16.3236C8.8567 16.6328 9.90941 16.6745 10.983 16.6537C10.6946 16.7926 10.3993 16.8969 10.0797 17.0046C9.87814 17.0671 9.71833 17.2478 9.71833 17.4736C9.73917 18.1545 9.80171 18.8251 9.8573 19.5026C9.90941 20.1314 10.8892 20.1314 10.837 19.5026C10.7849 18.9084 10.7398 18.3109 10.7085 17.7168C10.7294 18.0156 12.8139 16.6224 12.9946 16.473C13.283 16.2194 13.1127 15.7608 12.7931 15.6635C15.2598 15.3751 17.7057 14.8435 18.8835 12.8562C19.0642 12.5471 18.8314 12.1232 18.4701 12.1336C15.6212 12.1961 12.7618 12.6547 9.92334 12.9327C8.83937 13.0404 7.77624 13.221 6.71311 13.433C7.83878 13.1029 8.97834 12.8041 10.1457 12.5505C13.3664 11.8695 16.5558 10.9975 19.6826 9.96563C20.1585 9.77107 20.0925 8.97546 19.5297 8.99631Z" fill="white"/>
</svg>
