<svg width="18" height="18" viewBox="0 0 18 18" fill="none" xmlns="http://www.w3.org/2000/svg">
<path d="M4.55496 7.11487H0.714964C0.361489 7.11487 0.0749512 7.40141 0.0749512 7.75488V17.3549C0.0749512 17.7084 0.361489 17.9949 0.714964 17.9949H4.55496C4.90844 17.9949 5.19498 17.7084 5.19498 17.3549V7.75488C5.19494 7.40141 4.9084 7.11487 4.55496 7.11487ZM3.91495 16.7149H1.35494V8.39489H3.91495V16.7149Z" fill="white"/>
<path d="M10.955 0.0749512H7.11499C6.76151 0.0749512 6.47498 0.361489 6.47498 0.714964V17.3549C6.47498 17.7084 6.76151 17.995 7.11499 17.995H10.955C11.3085 17.995 11.595 17.7084 11.595 17.3549V0.714964C11.595 0.361489 11.3085 0.0749512 10.955 0.0749512ZM10.315 16.7149H7.755V1.35494H10.315V16.7149Z" fill="white"/>
<path d="M17.355 5.19495H13.515C13.1615 5.19495 12.875 5.48148 12.875 5.83496V17.355C12.875 17.7084 13.1615 17.995 13.515 17.995H17.355C17.7085 17.995 17.995 17.7084 17.995 17.355V5.83496C17.995 5.48148 17.7085 5.19495 17.355 5.19495ZM16.715 16.7149H14.155V6.47497H16.715V16.7149Z" fill="white"/>
</svg>
