<svg width="15" height="13" viewBox="0 0 15 13" fill="none" xmlns="http://www.w3.org/2000/svg">
<path d="M11.0822 4.19022H9.02221C8.7194 4.19091 8.45092 3.99574 8.35805 3.70759L7.72139 1.74818C7.68991 1.6527 7.60079 1.58813 7.5002 1.58813C7.3996 1.58813 7.31048 1.6527 7.279 1.74818L6.64234 3.70736C6.54948 3.99585 6.28077 4.19102 5.97773 4.19022H3.91772C3.81678 4.19011 3.72721 4.25502 3.69595 4.35106C3.66481 4.44711 3.69902 4.55237 3.78086 4.61159L5.44746 5.82204C5.69276 5.99959 5.79529 6.31514 5.70117 6.60283L5.06474 8.56201C5.03337 8.65795 5.06736 8.7632 5.14897 8.82254C5.23059 8.88199 5.34107 8.8821 5.4228 8.82277L7.08929 7.61232C7.33401 7.43374 7.66592 7.43374 7.91065 7.61232L9.57714 8.82277C9.65875 8.88199 9.76924 8.88187 9.85085 8.82254C9.93235 8.7632 9.96645 8.65818 9.93519 8.56224L9.29877 6.60317C9.20465 6.31548 9.30729 5.99993 9.55247 5.82261L11.2191 4.61205C11.3013 4.55294 11.3359 4.44746 11.3047 4.35118C11.2734 4.2549 11.1834 4.18977 11.0822 4.19022Z" fill="white"/>
<path d="M14.0182 1.62955C14.0172 0.729976 13.2882 0.00102301 12.3886 0H2.61136C1.71179 0.00102301 0.982835 0.729976 0.981812 1.62955V9.0789C0.982835 9.97847 1.71179 10.7074 2.61136 10.7084H3.54253C3.61982 10.7084 3.692 10.7467 3.73531 10.8106C3.77861 10.8746 3.78748 10.9559 3.75884 11.0276L3.04852 12.8036L7.39985 10.7317C7.43111 10.7166 7.46532 10.7087 7.49999 10.7084H12.3886C13.2882 10.7074 14.0172 9.97847 14.0182 9.0789V1.62955ZM11.4928 4.98798L9.82632 6.19855C9.7446 6.25777 9.71038 6.36291 9.74153 6.45885L10.3782 8.41826C10.4751 8.70595 10.372 9.0232 10.1245 9.19904C9.88077 9.38023 9.54716 9.38023 9.30345 9.19904L7.63685 7.98848C7.55524 7.92914 7.44475 7.92914 7.36314 7.98848L5.69654 9.19904C5.45181 9.37693 5.12024 9.37693 4.87551 9.19916C4.63067 9.02127 4.52826 8.70607 4.6218 8.41826L5.25846 6.45907C5.28972 6.36303 5.2555 6.25777 5.17366 6.19855L3.50718 4.98798C3.26233 4.81021 3.15992 4.49489 3.25347 4.2072C3.34702 3.91939 3.61516 3.72456 3.91774 3.72468H5.97775C6.07857 3.72468 6.16792 3.65988 6.19918 3.56406L6.8356 1.60465C6.92893 1.31662 7.19718 1.12145 7.49999 1.12145C7.80281 1.12145 8.07106 1.31662 8.16438 1.60465L8.80081 3.56406C8.83207 3.65988 8.92141 3.72468 9.02224 3.72468H11.0822C11.3848 3.72456 11.653 3.91939 11.7465 4.2072C11.8401 4.49489 11.7377 4.81021 11.4928 4.98798Z" fill="white"/>
</svg>
