<svg width="83" height="24" viewBox="0 0 83 24" fill="none" xmlns="http://www.w3.org/2000/svg">
<rect width="83" height="24" rx="5" fill="#EA0091"/>
<path d="M20.0322 8.12695H16.833V17H15.5273V8.12695H12.335V7.04688H20.0322V8.12695ZM20.292 13.2334C20.292 12.5088 20.4333 11.8571 20.7158 11.2783C21.0029 10.6995 21.3994 10.2529 21.9053 9.93848C22.4157 9.62402 22.9967 9.4668 23.6484 9.4668C24.6556 9.4668 25.4691 9.81543 26.0889 10.5127C26.7132 11.21 27.0254 12.1374 27.0254 13.2949V13.3838C27.0254 14.1038 26.8864 14.751 26.6084 15.3252C26.335 15.8949 25.9408 16.3392 25.4258 16.6582C24.9154 16.9772 24.3275 17.1367 23.6621 17.1367C22.6595 17.1367 21.846 16.7881 21.2217 16.0908C20.6019 15.3936 20.292 14.4707 20.292 13.3223V13.2334ZM21.5635 13.3838C21.5635 14.2041 21.7526 14.8626 22.1309 15.3594C22.5137 15.8561 23.0241 16.1045 23.6621 16.1045C24.3047 16.1045 24.8151 15.8538 25.1934 15.3525C25.5716 14.8467 25.7607 14.1403 25.7607 13.2334C25.7607 12.4222 25.5671 11.766 25.1797 11.2646C24.7969 10.7588 24.2865 10.5059 23.6484 10.5059C23.0241 10.5059 22.5205 10.7542 22.1377 11.251C21.7549 11.7477 21.5635 12.4587 21.5635 13.3838ZM34.8594 13.3838C34.8594 14.5094 34.6019 15.4163 34.0869 16.1045C33.5719 16.7926 32.8747 17.1367 31.9951 17.1367C31.0973 17.1367 30.391 16.8519 29.876 16.2822V19.8438H28.6113V9.60352H29.7666L29.8281 10.4238C30.3431 9.78581 31.0586 9.4668 31.9746 9.4668C32.8633 9.4668 33.5651 9.80176 34.0801 10.4717C34.5996 11.1416 34.8594 12.0736 34.8594 13.2676V13.3838ZM33.5947 13.2402C33.5947 12.4062 33.417 11.7477 33.0615 11.2646C32.7061 10.7816 32.2184 10.54 31.5986 10.54C30.833 10.54 30.2588 10.8796 29.876 11.5586V15.0928C30.2542 15.7673 30.833 16.1045 31.6123 16.1045C32.2184 16.1045 32.6992 15.8652 33.0547 15.3867C33.4147 14.9036 33.5947 14.1882 33.5947 13.2402ZM43.5205 10.7383C43.3291 10.7064 43.1217 10.6904 42.8984 10.6904C42.069 10.6904 41.5062 11.0436 41.21 11.75V17H39.9453V9.60352H41.1758L41.1963 10.458C41.611 9.7972 42.1989 9.4668 42.96 9.4668C43.2061 9.4668 43.3929 9.4987 43.5205 9.5625V10.7383ZM48.9824 17C48.9095 16.8542 48.8503 16.5944 48.8047 16.2207C48.2168 16.8314 47.515 17.1367 46.6992 17.1367C45.9701 17.1367 45.3708 16.9316 44.9014 16.5215C44.4365 16.1068 44.2041 15.5827 44.2041 14.9492C44.2041 14.179 44.4958 13.582 45.0791 13.1582C45.667 12.7298 46.4919 12.5156 47.5537 12.5156H48.7842V11.9346C48.7842 11.4925 48.652 11.1416 48.3877 10.8818C48.1234 10.6175 47.7337 10.4854 47.2188 10.4854C46.7676 10.4854 46.3893 10.5993 46.084 10.8271C45.7786 11.055 45.626 11.3307 45.626 11.6543H44.3545C44.3545 11.2852 44.4844 10.9297 44.7441 10.5879C45.0085 10.2415 45.3639 9.9681 45.8105 9.76758C46.2617 9.56706 46.7562 9.4668 47.2939 9.4668C48.1462 9.4668 48.8138 9.68099 49.2969 10.1094C49.7799 10.5332 50.0306 11.1188 50.0488 11.8662V15.2705C50.0488 15.9495 50.1354 16.4896 50.3086 16.8906V17H48.9824ZM46.8838 16.0361C47.2803 16.0361 47.6562 15.9336 48.0117 15.7285C48.3672 15.5234 48.6247 15.2568 48.7842 14.9287V13.4111H47.793C46.2435 13.4111 45.4688 13.8646 45.4688 14.7715C45.4688 15.168 45.6009 15.4779 45.8652 15.7012C46.1296 15.9245 46.4691 16.0361 46.8838 16.0361ZM53.7471 7.8125V9.60352H55.1279V10.5811H53.7471V15.168C53.7471 15.4642 53.8086 15.6875 53.9316 15.8379C54.0547 15.9837 54.2643 16.0566 54.5605 16.0566C54.7064 16.0566 54.9069 16.0293 55.1621 15.9746V17C54.8294 17.0911 54.5059 17.1367 54.1914 17.1367C53.6263 17.1367 53.2002 16.9658 52.9131 16.624C52.626 16.2822 52.4824 15.7969 52.4824 15.168V10.5811H51.1357V9.60352H52.4824V7.8125H53.7471ZM59.6807 17.1367C58.6781 17.1367 57.8623 16.8086 57.2334 16.1523C56.6045 15.4915 56.29 14.6097 56.29 13.5068V13.2744C56.29 12.5407 56.429 11.8867 56.707 11.3125C56.9896 10.7337 57.3815 10.2826 57.8828 9.95898C58.3887 9.63086 58.9355 9.4668 59.5234 9.4668C60.485 9.4668 61.2324 9.78353 61.7656 10.417C62.2988 11.0505 62.5654 11.9574 62.5654 13.1377V13.6641H57.5547C57.5729 14.3932 57.7848 14.9834 58.1904 15.4346C58.6006 15.8812 59.1201 16.1045 59.749 16.1045C60.1956 16.1045 60.5739 16.0133 60.8838 15.8311C61.1937 15.6488 61.4648 15.4072 61.6973 15.1064L62.4697 15.708C61.8499 16.6605 60.9202 17.1367 59.6807 17.1367ZM59.5234 10.5059C59.013 10.5059 58.5846 10.6927 58.2383 11.0664C57.8919 11.4355 57.6777 11.9551 57.5957 12.625H61.3008V12.5293C61.2643 11.8867 61.0911 11.39 60.7812 11.0391C60.4714 10.6836 60.0521 10.5059 59.5234 10.5059ZM63.7275 13.2402C63.7275 12.1055 63.9964 11.194 64.5342 10.5059C65.0719 9.81315 65.776 9.4668 66.6465 9.4668C67.5124 9.4668 68.1982 9.76302 68.7041 10.3555V6.5H69.9688V17H68.8066L68.7451 16.207C68.2393 16.8268 67.5352 17.1367 66.6328 17.1367C65.776 17.1367 65.0765 16.7858 64.5342 16.084C63.9964 15.3822 63.7275 14.4661 63.7275 13.3359V13.2402ZM64.9922 13.3838C64.9922 14.2223 65.1654 14.8786 65.5117 15.3525C65.8581 15.8265 66.3366 16.0635 66.9473 16.0635C67.7493 16.0635 68.335 15.7035 68.7041 14.9834V11.5859C68.3258 10.8887 67.7448 10.54 66.9609 10.54C66.3411 10.54 65.8581 10.7793 65.5117 11.2578C65.1654 11.7363 64.9922 12.445 64.9922 13.3838Z" fill="white"/>
</svg>
