<svg width="64" height="24" viewBox="0 0 64 24" fill="none" xmlns="http://www.w3.org/2000/svg">
<rect opacity="0.7" width="64" height="24" rx="5" fill="black"/>
<path d="M21.0322 8.12695H17.833V17H16.5273V8.12695H13.335V7.04688H21.0322V8.12695ZM25.3662 10.7383C25.1748 10.7064 24.9674 10.6904 24.7441 10.6904C23.9147 10.6904 23.3519 11.0436 23.0557 11.75V17H21.791V9.60352H23.0215L23.042 10.458C23.4567 9.7972 24.0446 9.4668 24.8057 9.4668C25.0518 9.4668 25.2386 9.4987 25.3662 9.5625V10.7383ZM30.8281 17C30.7552 16.8542 30.696 16.5944 30.6504 16.2207C30.0625 16.8314 29.3607 17.1367 28.5449 17.1367C27.8158 17.1367 27.2165 16.9316 26.7471 16.5215C26.2822 16.1068 26.0498 15.5827 26.0498 14.9492C26.0498 14.179 26.3415 13.582 26.9248 13.1582C27.5127 12.7298 28.3376 12.5156 29.3994 12.5156H30.6299V11.9346C30.6299 11.4925 30.4977 11.1416 30.2334 10.8818C29.9691 10.6175 29.5794 10.4854 29.0645 10.4854C28.6133 10.4854 28.235 10.5993 27.9297 10.8271C27.6243 11.055 27.4717 11.3307 27.4717 11.6543H26.2002C26.2002 11.2852 26.3301 10.9297 26.5898 10.5879C26.8542 10.2415 27.2096 9.9681 27.6562 9.76758C28.1074 9.56706 28.6019 9.4668 29.1396 9.4668C29.9919 9.4668 30.6595 9.68099 31.1426 10.1094C31.6257 10.5332 31.8763 11.1188 31.8945 11.8662V15.2705C31.8945 15.9495 31.9811 16.4896 32.1543 16.8906V17H30.8281ZM28.7295 16.0361C29.126 16.0361 29.502 15.9336 29.8574 15.7285C30.2129 15.5234 30.4704 15.2568 30.6299 14.9287V13.4111H29.6387C28.0892 13.4111 27.3145 13.8646 27.3145 14.7715C27.3145 15.168 27.4466 15.4779 27.7109 15.7012C27.9753 15.9245 28.3148 16.0361 28.7295 16.0361ZM35.251 17H33.9863V9.60352H35.251V17ZM33.8838 7.6416C33.8838 7.43652 33.9453 7.26335 34.0684 7.12207C34.196 6.98079 34.3828 6.91016 34.6289 6.91016C34.875 6.91016 35.0618 6.98079 35.1895 7.12207C35.3171 7.26335 35.3809 7.43652 35.3809 7.6416C35.3809 7.84668 35.3171 8.01758 35.1895 8.1543C35.0618 8.29102 34.875 8.35938 34.6289 8.35938C34.3828 8.35938 34.196 8.29102 34.0684 8.1543C33.9453 8.01758 33.8838 7.84668 33.8838 7.6416ZM38.6553 17H37.3906V6.5H38.6553V17ZM43.7549 17.1367C42.7523 17.1367 41.9365 16.8086 41.3076 16.1523C40.6787 15.4915 40.3643 14.6097 40.3643 13.5068V13.2744C40.3643 12.5407 40.5033 11.8867 40.7812 11.3125C41.0638 10.7337 41.4557 10.2826 41.957 9.95898C42.4629 9.63086 43.0098 9.4668 43.5977 9.4668C44.5592 9.4668 45.3066 9.78353 45.8398 10.417C46.373 11.0505 46.6396 11.9574 46.6396 13.1377V13.6641H41.6289C41.6471 14.3932 41.859 14.9834 42.2646 15.4346C42.6748 15.8812 43.1943 16.1045 43.8232 16.1045C44.2699 16.1045 44.6481 16.0133 44.958 15.8311C45.2679 15.6488 45.5391 15.4072 45.7715 15.1064L46.5439 15.708C45.9242 16.6605 44.9945 17.1367 43.7549 17.1367ZM43.5977 10.5059C43.0872 10.5059 42.6589 10.6927 42.3125 11.0664C41.9661 11.4355 41.752 11.9551 41.6699 12.625H45.375V12.5293C45.3385 11.8867 45.1654 11.39 44.8555 11.0391C44.5456 10.6836 44.1263 10.5059 43.5977 10.5059ZM51.6846 10.7383C51.4932 10.7064 51.2858 10.6904 51.0625 10.6904C50.2331 10.6904 49.6702 11.0436 49.374 11.75V17H48.1094V9.60352H49.3398L49.3604 10.458C49.7751 9.7972 50.363 9.4668 51.124 9.4668C51.3701 9.4668 51.557 9.4987 51.6846 9.5625V10.7383Z" fill="white"/>
</svg>
