<svg width="38" height="38" viewBox="0 0 38 38" fill="none" xmlns="http://www.w3.org/2000/svg">
<circle opacity="0.7" cx="19" cy="19" r="19" fill="#4E4E4E"/>
<path d="M23.5953 27.0326C24.6498 25.981 25.486 24.7315 26.056 23.3557C26.626 21.9799 26.9185 20.505 26.9167 19.0158C26.9185 17.5266 26.626 16.0517 26.056 14.676C25.486 13.3002 24.6498 12.0506 23.5953 10.999L22.6509 11.9421C23.5813 12.8699 24.3192 13.9725 24.8221 15.1865C25.3251 16.4004 25.5831 17.7018 25.5815 19.0158C25.5815 21.7783 24.461 24.2794 22.6509 26.0895L23.5953 27.0326Z" fill="white"/>
<path d="M21.7077 25.1464C22.514 24.3422 23.1535 23.3866 23.5894 22.3345C24.0252 21.2824 24.2489 20.1546 24.2475 19.0158C24.2489 17.877 24.0252 16.7491 23.5894 15.697C23.1535 14.6449 22.514 13.6893 21.7077 12.8851L20.7646 13.8282C21.4469 14.5087 21.988 15.3173 22.3568 16.2075C22.7256 17.0978 22.9148 18.0522 22.9136 19.0158C22.9151 19.9795 22.7262 20.9341 22.3576 21.8246C21.9891 22.715 21.4482 23.5239 20.766 24.2047L21.7077 25.1464Z" fill="white"/>
<path d="M19.8215 23.2602C20.3797 22.7034 20.8224 22.0418 21.1241 21.3134C21.4258 20.585 21.5806 19.8042 21.5796 19.0157C21.5806 18.2273 21.4258 17.4465 21.1241 16.718C20.8224 15.9896 20.3797 15.328 19.8215 14.7712L18.8784 15.7143C19.3126 16.1474 19.6569 16.662 19.8915 17.2286C20.1262 17.7951 20.2465 18.4025 20.2457 19.0157C20.2464 19.629 20.1261 20.2363 19.8914 20.8029C19.6568 21.3694 19.3125 21.884 18.8784 22.3172L19.8215 23.2602Z" fill="white"/>
<path fill-rule="evenodd" clip-rule="evenodd" d="M17.167 13.0799C17.28 13.1343 17.3753 13.2195 17.4421 13.3257C17.5089 13.4319 17.5443 13.5547 17.5445 13.6801V24.3514C17.5443 24.4769 17.5087 24.5998 17.4418 24.706C17.3749 24.8122 17.2794 24.8973 17.1663 24.9516C17.0531 25.006 16.927 25.0273 16.8023 25.0131C16.6776 24.999 16.5594 24.9499 16.4613 24.8716L13.3093 22.3505H10.208C10.0311 22.3505 9.86144 22.2803 9.73636 22.1552C9.61128 22.0301 9.54102 21.8605 9.54102 21.6836V16.3479C9.54102 16.1711 9.61128 16.0014 9.73636 15.8763C9.86144 15.7513 10.0311 15.681 10.208 15.681H13.3093L16.4613 13.1599C16.5595 13.0815 16.6778 13.0323 16.8026 13.0182C16.9274 13.004 17.0537 13.0254 17.167 13.0799Z" fill="white"/>
</svg>
