<svg width="18" height="15" viewBox="0 0 18 15" fill="none" xmlns="http://www.w3.org/2000/svg">
<path d="M17.3838 6.97203C16.7136 5.55995 15.9159 4.40833 14.9909 3.51715L14.0208 4.48726C14.8119 5.24325 15.501 6.23224 16.0968 7.46394C14.5105 10.7472 12.2587 12.3069 9.18134 12.3069C8.25763 12.3069 7.40681 12.1646 6.62889 11.8802L5.57775 12.9313C6.65819 13.4302 7.85939 13.6797 9.18134 13.6797C12.8459 13.6797 15.5801 11.7711 17.3838 7.95396C17.4563 7.80044 17.4939 7.63277 17.4939 7.46299C17.4939 7.29321 17.4563 7.12554 17.3838 6.97203ZM16.1717 0.8585L15.3589 0.0447359C15.3448 0.0305539 15.3279 0.0193033 15.3094 0.0116272C15.2909 0.00395105 15.2711 0 15.251 0C15.231 0 15.2111 0.00395105 15.1926 0.0116272C15.1741 0.0193033 15.1573 0.0305539 15.1431 0.0447359L13.0578 2.1291C11.9081 1.54185 10.6159 1.24822 9.18134 1.24822C5.51673 1.24822 2.78258 3.15679 0.978875 6.97393C0.906375 7.12745 0.868774 7.29512 0.868774 7.4649C0.868774 7.63468 0.906375 7.80234 0.978875 7.95586C1.69947 9.47357 2.567 10.6901 3.58147 11.6054L1.56384 13.6225C1.53526 13.6511 1.5192 13.6899 1.5192 13.7303C1.5192 13.7707 1.53526 13.8095 1.56384 13.8381L2.37779 14.6521C2.4064 14.6806 2.44518 14.6967 2.48562 14.6967C2.52605 14.6967 2.56483 14.6806 2.59344 14.6521L16.1717 1.07433C16.1859 1.06017 16.1972 1.04335 16.2048 1.02483C16.2125 1.00631 16.2165 0.986462 16.2165 0.966417C16.2165 0.946372 16.2125 0.926523 16.2048 0.908006C16.1972 0.889489 16.1859 0.872666 16.1717 0.8585ZM2.26587 7.46394C3.85412 4.18067 6.10589 2.62102 9.18134 2.62102C10.2212 2.62102 11.1667 2.79948 12.0246 3.16232L10.6842 4.50271C10.0494 4.16401 9.32254 4.03831 8.61088 4.14415C7.89921 4.24999 7.2404 4.58176 6.73164 5.09051C6.22289 5.59927 5.89112 6.25808 5.78528 6.96975C5.67944 7.68141 5.80514 8.40825 6.14384 9.04304L4.5533 10.6336C3.67299 9.85662 2.91414 8.80395 2.26587 7.46394ZM6.96961 7.46394C6.96994 7.12773 7.04958 6.79634 7.20205 6.49669C7.35453 6.19704 7.57553 5.93758 7.84712 5.73939C8.1187 5.54119 8.43321 5.40986 8.76509 5.35606C9.09697 5.30225 9.43686 5.32749 9.75715 5.42973L7.07085 8.11602C7.00352 7.90522 6.96937 7.68524 6.96961 7.46394Z" fill="black"/>
<path d="M9.105 9.59947C9.03903 9.59947 8.97401 9.59642 8.90957 9.59051L7.90247 10.5976C8.50819 10.8296 9.16815 10.8811 9.80255 10.746C10.437 10.6109 11.0186 10.2949 11.4773 9.8363C11.9359 9.37765 12.2519 8.79596 12.387 8.16156C12.5221 7.52716 12.4706 6.8672 12.2386 6.26147L11.2315 7.26857C11.2374 7.33302 11.2405 7.39804 11.2405 7.46401C11.2406 7.74448 11.1855 8.02224 11.0782 8.28139C10.971 8.54055 10.8137 8.77602 10.6153 8.97434C10.417 9.17267 10.1815 9.32996 9.92238 9.43722C9.66323 9.54449 9.38547 9.59962 9.105 9.59947Z" fill="black"/>
</svg>
