<svg width="18" height="18" viewBox="0 0 18 18" fill="none" xmlns="http://www.w3.org/2000/svg">
<path d="M16.6507 11.3153C16.4026 11.3153 16.2014 11.5164 16.2014 11.7645V15.7535C16.2005 16.4976 15.5977 17.1006 14.8535 17.1013H2.24652C1.50236 17.1006 0.899484 16.4976 0.898607 15.7535V4.04623C0.899484 3.30231 1.50236 2.69932 2.24652 2.69845H6.23584C6.48401 2.69845 6.68514 2.49733 6.68514 2.24919C6.68514 2.00122 6.48401 1.79993 6.23584 1.79993H2.24652C1.00637 1.80133 0.00140407 2.8062 0 4.04623V15.7537C0.00140407 16.9937 1.00637 17.9986 2.24652 18H14.8535C16.0937 17.9986 17.0986 16.9937 17.1 15.7537V11.7645C17.1 11.5164 16.8989 11.3153 16.6507 11.3153Z" fill="white"/>
<path d="M16.8543 0.606557C16.0455 -0.202186 14.7342 -0.202186 13.9254 0.606557L5.71464 8.81658C5.65837 8.87284 5.61774 8.94259 5.59653 9.01917L4.51679 12.9169C4.47239 13.0767 4.51751 13.2478 4.63473 13.3652C4.75212 13.4824 4.92327 13.5276 5.08309 13.4833L8.98118 12.4035C9.05777 12.3823 9.12752 12.3417 9.18379 12.2854L17.3944 4.07521C18.2019 3.26593 18.2019 1.95584 17.3944 1.14656L16.8543 0.606557ZM6.71744 9.1157L13.4373 2.39625L15.6045 4.56326L8.88446 11.2827L6.71744 9.1157ZM6.28454 9.9843L8.01596 11.7158L5.62098 12.3792L6.28454 9.9843ZM16.7436 3.42448L16.2555 3.91253L14.0881 1.74534L14.5764 1.25729C15.0256 0.808068 15.7541 0.808068 16.2033 1.25729L16.7436 1.79729C17.1921 2.24705 17.1921 2.9749 16.7436 3.42448Z" fill="white"/>
</svg>
