<svg width="71" height="66" viewBox="0 0 71 66" fill="none" xmlns="http://www.w3.org/2000/svg">
<path d="M59.8909 0.0922852H11.8007C5.77393 0.0922852 0.871094 4.99512 0.871094 11.0219V49.2754C0.871094 55.3022 5.77393 60.205 11.8007 60.205H49.0979C50.6071 60.205 51.8303 58.9818 51.8303 57.4726C51.8303 55.9634 50.6071 54.7402 49.0979 54.7402H39.0339L32.7515 46.59L52.6602 21.2678L66.0622 36.0804C66.8201 36.9188 68.016 37.2033 69.0705 36.7971C70.1245 36.3905 70.8205 35.377 70.8205 34.2472V11.0219C70.8205 4.99512 65.9176 0.0922852 59.8909 0.0922852V0.0922852ZM65.3557 27.1548L54.5397 15.2C53.9997 14.6028 53.2226 14.273 52.4189 14.3024C51.6147 14.3306 50.8633 14.7117 50.3654 15.3446L29.3099 42.1253L22.1619 32.8522C21.6448 32.1814 20.8453 31.7881 19.9979 31.7881C19.9973 31.7881 19.9968 31.7881 19.9963 31.7881C19.1488 31.7886 18.3488 32.1825 17.8322 32.8544L11.8188 40.6716C10.8988 41.8681 11.1224 43.5833 12.3183 44.5033C13.5148 45.4239 15.2301 45.1998 16.1506 44.0038L20 38.9991L32.1341 54.7402H11.8007C8.78757 54.7402 6.33589 52.2885 6.33589 49.2754V11.0219C6.33589 8.00877 8.78757 5.55708 11.8007 5.55708H59.8909C62.904 5.55708 65.3557 8.00877 65.3557 11.0219V27.1548Z" fill="#AFAFB1"/>
<path d="M19.998 9.9292C15.4778 9.9292 11.8008 13.6062 11.8008 18.1264C11.8008 22.6466 15.4778 26.3236 19.998 26.3236C24.5182 26.3236 28.1952 22.6466 28.1952 18.1264C28.1952 13.6062 24.5182 9.9292 19.998 9.9292ZM19.998 20.8588C18.4914 20.8588 17.2656 19.6329 17.2656 18.1264C17.2656 16.6198 18.4914 15.394 19.998 15.394C21.5045 15.394 22.7304 16.6198 22.7304 18.1264C22.7304 19.6329 21.5045 20.8588 19.998 20.8588Z" fill="#AFAFB1"/>
<path d="M64.8742 41.4807C64.8662 41.4727 64.8582 41.4642 64.8502 41.4562C63.5587 40.1556 61.8408 39.4395 60.0124 39.4395C58.1894 39.4395 56.4763 40.1514 55.1864 41.4445L49.9111 46.6478C48.8368 47.7071 48.8251 49.4373 49.885 50.5115C50.9443 51.5858 52.6745 51.5981 53.7487 50.5382L57.28 47.0555V62.3916C57.28 63.9008 58.5032 65.124 60.0124 65.124C61.5217 65.124 62.7448 63.9008 62.7448 62.3916V47.1387L66.1246 50.63C66.6604 51.184 67.3739 51.462 68.0879 51.462C68.7726 51.462 69.4579 51.2064 69.9883 50.693C71.0728 49.6432 71.1005 47.9136 70.0508 46.8292L64.8742 41.4807Z" fill="#AFAFB1"/>
</svg>
