<svg width="12" height="12" viewBox="0 0 12 12" fill="none" xmlns="http://www.w3.org/2000/svg">
<path d="M9.85699 5.99996C9.62029 5.99996 9.42842 6.19183 9.42842 6.42853V10.7142C9.42842 10.9509 9.23654 11.1427 8.99984 11.1427H1.2857C1.049 11.1427 0.857122 10.9509 0.857122 10.7142V2.14287C0.857122 1.90617 1.049 1.7143 1.2857 1.7143H6.42848C6.66518 1.7143 6.85705 1.52242 6.85705 1.28573C6.85705 1.04903 6.66518 0.857178 6.42848 0.857178H1.2857C0.575625 0.857178 0 1.4328 0 2.14287V10.7142C0 11.4242 0.575625 11.9999 1.2857 11.9999H8.99987C9.70994 11.9999 10.2856 11.4242 10.2856 10.7142V6.42851C10.2856 6.19183 10.0937 5.99996 9.85699 5.99996Z" fill="white"/>
<path d="M11.5196 0.480586C11.2119 0.172822 10.7945 -4.34422e-05 10.3593 6.78032e-06C9.92382 -0.00124878 9.50602 0.171918 9.19916 0.480862L3.55408 6.12547C3.50725 6.17265 3.47192 6.23001 3.4508 6.29304L2.59368 8.86443C2.51887 9.089 2.64028 9.33167 2.86485 9.40645C2.90842 9.42097 2.95405 9.42838 2.99995 9.42843C3.04595 9.42835 3.09168 9.42097 3.13538 9.40658L5.70677 8.54946C5.76992 8.52836 5.8273 8.49286 5.87433 8.44575L11.5194 2.80069C12.1601 2.16005 12.1602 1.1213 11.5196 0.480586ZM10.9134 2.19511L5.34205 7.76646L3.6775 8.3223L4.23163 6.65989L9.80512 1.08855C10.1115 0.782749 10.6079 0.783252 10.9137 1.08966C11.0597 1.23603 11.142 1.43419 11.1427 1.64098C11.1432 1.84887 11.0607 2.04836 10.9134 2.19511Z" fill="white"/>
</svg>
