<svg width="13" height="13" viewBox="0 0 13 13" fill="none" xmlns="http://www.w3.org/2000/svg">
<path d="M6.5 0L0 4.84792V11.4757C0 12.3157 0.683365 12.9991 1.52344 12.9991H11.4766C12.3166 12.9991 13 12.3157 13 11.4757V4.84792L6.5 0ZM11.5988 5.06979L6.5 8.86232L1.40125 5.06979L6.5 1.26695L11.5988 5.06979ZM11.4766 11.9835H1.52344C1.24345 11.9835 1.01562 11.7557 1.01562 11.4757V6.04882L6.5 10.1281L11.9844 6.04882V11.4757C11.9844 11.7557 11.7566 11.9835 11.4766 11.9835ZM4.57031 4.56942H5.9668V3.17294H6.98242V4.56942H8.37891V5.58504H6.98242V6.98153H5.9668V5.58504H4.57031V4.56942Z" fill="white"/>
</svg>
