<svg width="14" height="13" viewBox="0 0 14 13" fill="none" xmlns="http://www.w3.org/2000/svg">
<path d="M1.75923 8.09544C2.10131 7.50184 2.455 6.888 2.455 5.94141V5.17969C2.455 3.57829 3.7522 2.25788 5.34745 2.23467H5.44345C7.04405 2.25798 8.34562 3.57839 8.34562 5.17969V5.94141C8.34562 6.49445 8.45641 6.96992 8.70486 7.48299C8.79254 7.6642 8.97364 7.76973 9.16229 7.76963C9.23647 7.76963 9.31185 7.75327 9.38317 7.71885C9.63558 7.59656 9.74111 7.29286 9.61892 7.04044C9.43831 6.66742 9.36125 6.33873 9.36125 5.94141V5.17969C9.36125 3.16976 7.83622 1.48912 5.88273 1.2486V0.507812C5.88273 0.227325 5.65541 0 5.37492 0C5.09443 0 4.86711 0.227325 4.86711 0.507812V1.25336C4.00244 1.36822 3.20303 1.76614 2.57927 2.40031C1.84423 3.14754 1.43937 4.13461 1.43937 5.17969V5.94141C1.43937 6.61634 1.19221 7.0453 0.87929 7.58842C0.570139 8.1248 0.219828 8.73289 0.0438791 9.67155C-0.0399298 10.1188 0.078692 10.5761 0.369196 10.9262C0.659503 11.276 1.08668 11.4766 1.54123 11.4766H3.87687C3.87687 12.3166 4.56034 13 5.40031 13C6.24038 13 6.92375 12.3166 6.92375 11.4766C6.92375 11.4658 6.92285 11.4551 6.92216 11.4445C7.11566 11.3728 7.25382 11.1871 7.25382 10.9688C7.25382 10.6883 7.0265 10.4609 6.74601 10.4609H1.54123C1.33394 10.4609 1.20758 10.3461 1.15075 10.2775C1.09372 10.2088 1.00386 10.0631 1.04215 9.8586C1.18626 9.09004 1.47756 8.58441 1.75923 8.09544ZM5.90812 11.4766C5.90812 11.7566 5.6803 11.9844 5.40031 11.9844C5.12032 11.9844 4.8925 11.7566 4.8925 11.4766H5.90812ZM13.0175 10.5879C13.0175 10.8684 12.7902 11.0957 12.5097 11.0957H11.1132V12.4922C11.1132 12.7727 10.8859 13 10.6054 13C10.3249 13 10.0976 12.7727 10.0976 12.4922V11.0957H8.70109C8.4206 11.0957 8.19328 10.8684 8.19328 10.5879C8.19328 10.3074 8.4206 10.0801 8.70109 10.0801H10.0976V8.68359C10.0976 8.40311 10.3249 8.17578 10.6054 8.17578C10.8859 8.17578 11.1132 8.40311 11.1132 8.68359V10.0801H12.5097C12.7902 10.0801 13.0175 10.3074 13.0175 10.5879Z" fill="black"/>
</svg>
