<svg width="42" height="24" viewBox="0 0 42 24" fill="none" xmlns="http://www.w3.org/2000/svg">
<rect opacity="0.7" width="42" height="24" rx="5" fill="#4E4E4E"/>
<path d="M14.1504 17H12.8789V8.57129L10.3291 9.50781V8.35938L13.9521 6.99902H14.1504V17ZM22.8184 7.04004V8.11328H22.5859C21.6016 8.13151 20.8177 8.42318 20.2344 8.98828C19.651 9.55339 19.3138 10.3486 19.2227 11.374C19.7467 10.7725 20.4622 10.4717 21.3691 10.4717C22.235 10.4717 22.9255 10.777 23.4404 11.3877C23.96 11.9984 24.2197 12.7868 24.2197 13.7529C24.2197 14.7783 23.9395 15.5986 23.3789 16.2139C22.8229 16.8291 22.0755 17.1367 21.1367 17.1367C20.1842 17.1367 19.4118 16.7721 18.8193 16.043C18.2269 15.3092 17.9307 14.3659 17.9307 13.2129V12.7275C17.9307 10.8955 18.3203 9.49642 19.0996 8.53027C19.8835 7.55957 21.0479 7.06283 22.5928 7.04004H22.8184ZM21.1572 11.5244C20.7243 11.5244 20.3255 11.6543 19.9609 11.9141C19.5964 12.1738 19.3434 12.4997 19.2021 12.8916V13.3564C19.2021 14.1768 19.3867 14.8376 19.7559 15.3389C20.125 15.8402 20.5853 16.0908 21.1367 16.0908C21.7064 16.0908 22.153 15.8812 22.4766 15.4619C22.8047 15.0426 22.9688 14.4935 22.9688 13.8145C22.9688 13.1309 22.8024 12.5794 22.4697 12.1602C22.1416 11.7363 21.7041 11.5244 21.1572 11.5244ZM29.4697 11.6611H32.2451V12.8574H29.4697V16.002H28.1982V12.8574H25.4229V11.6611H28.1982V8.75586H29.4697V11.6611Z" fill="white"/>
</svg>
