<svg width="18" height="17" viewBox="0 0 18 17" fill="none" xmlns="http://www.w3.org/2000/svg">
<path d="M15.8906 5.27412V0.528021C15.8906 0.0319311 15.2516 -0.198694 14.9418 0.211052C14.9342 0.221177 14.1623 1.23487 12.7836 2.23141C10.9586 3.55054 8.9877 4.21943 6.92578 4.21943H3.16406C1.4194 4.21943 0 5.63883 0 7.38349C0 9.12815 1.4194 10.5476 3.16406 10.5476V16.3483C3.16406 16.6396 3.40017 16.8757 3.69141 16.8757H6.92578C7.21702 16.8757 7.45312 16.6396 7.45312 16.3483C7.4417 16.2311 7.53968 15.2258 6.95904 13.8851C6.57657 13.0019 6.39844 12.2704 6.39844 11.5829V10.5476H6.92578C8.9877 10.5476 10.9586 11.2164 12.7837 12.5356C14.1624 13.5321 14.9342 14.5458 14.9414 14.5554C15.2465 14.9612 15.8906 14.7409 15.8906 14.239V9.49287C17.0537 9.49287 18 8.5466 18 7.38349C18 6.22038 17.0537 5.27412 15.8906 5.27412ZM4.21875 15.821V10.5476H5.34375V11.5829C5.34375 12.4195 5.54948 13.2842 5.99122 14.3042C6.21049 14.8105 6.34205 15.3192 6.38385 15.821H4.21875ZM6.39844 9.49287C6.39844 9.49287 3.42826 9.49287 3.16406 9.49287C2.00095 9.49287 1.05469 8.5466 1.05469 7.38349C1.05469 6.22038 2.00095 5.27412 3.16406 5.27412H6.39844V9.49287ZM14.8359 12.8819C14.4689 12.5269 13.9991 12.1153 13.4323 11.7031C11.5983 10.3693 9.54158 9.61609 7.45312 9.50717V5.25977C9.54158 5.15086 11.5983 4.39767 13.4323 3.06384C13.9991 2.6516 14.4689 2.24006 14.8359 1.88512V12.8819ZM15.8906 8.43818V6.3288C16.4722 6.3288 16.9453 6.80194 16.9453 7.38349C16.9453 7.96504 16.4722 8.43818 15.8906 8.43818Z" fill="white"/>
</svg>
