<svg width="14" height="14" viewBox="0 0 14 14" fill="none" xmlns="http://www.w3.org/2000/svg">
<path d="M0.0647948 4.78743L0.00467229 0.402847C0.00180931 0.179706 0.182177 -0.00286391 0.402626 3.40296e-05L4.73431 0.0637886C5.08073 0.0695845 5.25251 0.492683 5.0063 0.741906L3.80098 1.96194L5.80507 3.99049L3.94413 5.87415L1.94005 3.8456L0.734732 5.06563C0.491379 5.31195 0.0705208 5.13808 0.0647948 4.78743Z" fill="white"/>
<path d="M12.0618 3.87175L13.2671 5.09178C13.5133 5.341 13.9313 5.16713 13.937 4.81648L14 0.4319C14.0029 0.208759 13.8225 0.0261888 13.6021 0.0290868L9.27039 0.0928414C8.92397 0.0986372 8.7522 0.521736 8.99841 0.770959L10.2009 1.98519L8.19678 4.01375L10.0577 5.89741L12.0618 3.87175Z" fill="white"/>
<path d="M8.99548 13.2581C8.74927 13.5074 8.92104 13.9305 9.26746 13.9362L13.5992 14C13.8196 14.0029 14 13.8203 13.9971 13.5972L13.9341 9.21261C13.9284 8.86196 13.5104 8.68809 13.2642 8.93731L12.0589 10.1573L10.0548 8.12878L8.19385 10.0124L10.1979 12.041L8.99548 13.2581Z" fill="white"/>
<path d="M0.400817 13.971L4.7325 13.9072C5.07893 13.9014 5.2507 13.4783 5.00449 13.2291L3.79917 12.0119L5.80326 9.98339L3.94232 8.09973L1.93824 10.1283L0.732923 8.90826C0.486706 8.65903 0.0687115 8.83291 0.0629855 9.18356L0 13.5681C0 13.7913 0.180368 13.9738 0.400817 13.971Z" fill="white"/>
</svg>
