<svg width="12" height="15" viewBox="0 0 12 15" fill="none" xmlns="http://www.w3.org/2000/svg">
<path d="M5.49983 1.94089L6.0001 1.86882L6.5002 1.94089C8.19417 2.18502 9.50005 3.64355 9.50005 5.40001V7.07279C9.50005 8.46525 10.1102 9.78072 11.1733 10.6805C11.2582 10.7539 11.3001 10.8506 11.3001 10.95C11.3001 11.1425 11.1424 11.3001 10.9501 11.3001H1.05007C0.857584 11.3001 0.7 11.1425 0.7 10.95C0.7 10.8481 0.743761 10.7523 0.82139 10.6853C1.88931 9.78128 2.5 8.46601 2.5 7.07279V5.40001C2.5 3.64347 3.80541 2.18502 5.49983 1.94089Z" stroke="white" stroke-width="1.4"/>
<path d="M6.29996 15C7.33505 15 8.20101 14.2253 8.39997 13.2H4.19995C4.39881 14.2253 5.26477 15 6.29996 15Z" fill="white"/>
</svg>
