<svg width="40" height="40" viewBox="0 0 40 40" fill="none" xmlns="http://www.w3.org/2000/svg">
<path d="M11.67 14.3314C11.8056 13.6032 11.9054 12.8672 12.0858 12.1502C12.5542 10.2776 13.639 8.89637 15.3928 8.02568C18.275 6.58726 21.2267 6.21924 24.3141 7.2672C26.3312 7.94938 27.7084 9.28683 28.5153 11.2414C29.5211 13.6476 29.7636 16.3053 29.2101 18.8543C28.5971 21.7782 26.6192 23.3603 23.7706 23.9246C21.3959 24.3948 19.0292 24.3824 16.7005 23.6251C16.6243 23.612 16.547 23.606 16.4697 23.6071C16.4697 23.8932 16.4697 24.1681 16.4697 24.4419C16.4697 26.3976 16.4753 28.3532 16.4697 30.31C16.4697 31.9325 15.5183 32.875 13.9079 32.8828C13.1608 32.8828 12.4138 32.8877 11.6667 32.8974L11.67 14.3314ZM20.616 20.7437C21.9988 20.7785 23.3145 20.5833 24.5382 19.9707C25.6756 19.4029 26.4746 18.5311 26.5699 17.2329C26.7189 15.1909 25.9513 13.574 24.1415 12.4992C23.2797 11.9875 22.4426 11.4321 21.6021 10.8846C20.978 10.4773 20.3493 10.4728 19.7262 10.8745C18.8992 11.4074 18.0755 11.9482 17.2261 12.4453C16.0069 13.16 15.2157 14.1654 14.8492 15.5409C14.3158 17.5426 15.0902 19.2189 16.9885 20.0728C18.1551 20.5945 19.3777 20.774 20.616 20.7437Z" fill="white"/>
<path d="M21.7813 16.26C21.7813 16.0356 21.7634 15.8112 21.7813 15.5868C21.805 15.3167 21.9239 15.064 22.1167 14.8736C22.3095 14.6833 22.5636 14.5678 22.8336 14.5478C23.4835 14.4973 23.9968 14.7845 24.0864 15.3871C24.1724 15.972 24.1754 16.5662 24.0954 17.152C24.0158 17.7388 23.4903 18.044 22.8504 18.0092C22.5798 17.9912 22.3244 17.8777 22.1294 17.6889C21.9345 17.5001 21.8128 17.2482 21.7858 16.9781C21.7735 16.737 21.7735 16.4954 21.7858 16.2544L21.7813 16.26Z" fill="white"/>
<path d="M17.1614 16.2669C17.1614 16.0425 17.1479 15.8181 17.1614 15.5937C17.2084 14.9665 17.7138 14.5289 18.366 14.5379C18.6561 14.5323 18.9367 14.6406 19.148 14.8396C19.3593 15.0386 19.4845 15.3125 19.4967 15.6027C19.5192 16.0279 19.5281 16.4565 19.5102 16.8817C19.4799 17.5796 19.0115 18.0105 18.3234 18.0105C17.6354 18.0105 17.1894 17.5864 17.1614 16.8784C17.1535 16.6753 17.1614 16.4711 17.1614 16.2669Z" fill="white"/>
</svg>
