<svg width="17" height="21" viewBox="0 0 17 21" fill="none" xmlns="http://www.w3.org/2000/svg">
<path d="M13.3015 10.8755V1.36074C13.3015 0.861903 13.0318 0.404788 12.5977 0.16788C12.3965 0.058011 12.1699 0 11.9423 0C11.6849 0 11.4348 0.073129 11.2191 0.211418L4.03821 4.8111H1.76582C0.792172 4.8111 0 5.61822 0 6.61032V12.3764C0 13.3746 0.792172 14.1866 1.76582 14.1866H4.03862L6.18713 15.554C6.18602 15.5986 6.18544 15.6435 6.18544 15.6884C6.18544 18.5478 8.51173 20.8742 11.3712 20.8742C14.2307 20.8742 16.557 18.5478 16.557 15.6884C16.557 13.5109 15.2078 11.6427 13.3015 10.8755ZM8.5115 17.5755C8.15289 17.0338 7.94334 16.3852 7.94334 15.6884C7.94334 13.7982 9.48104 12.2605 11.3712 12.2605C12.068 12.2605 12.7167 12.47 13.2583 12.8286L8.5115 17.5755ZM11.3712 19.1163C10.8155 19.1163 10.2908 18.9825 9.82612 18.7468L14.4296 14.1433C14.6654 14.608 14.7991 15.1327 14.7991 15.6884C14.7991 17.5786 13.2614 19.1163 11.3712 19.1163Z" fill="white"/>
</svg>
