<svg width="19" height="6" viewBox="0 0 19 6" fill="none" xmlns="http://www.w3.org/2000/svg">
<path d="M11.5 3C11.5 1.75736 10.4926 0.75 9.25 0.75C8.00736 0.75 7 1.75736 7 3C7 4.24264 8.00736 5.25 9.25 5.25C10.4926 5.25 11.5 4.24264 11.5 3Z" fill="#C9CFE5"/>
<path d="M18.25 3C18.25 1.75736 17.2426 0.75 16 0.75C14.7574 0.75 13.75 1.75736 13.75 3C13.75 4.24264 14.7574 5.25 16 5.25C17.2426 5.25 18.25 4.24264 18.25 3Z" fill="#C9CFE5"/>
<path d="M4.75 3C4.75 1.75736 3.74264 0.75 2.5 0.75C1.25736 0.75 0.25 1.75736 0.25 3C0.25 4.24264 1.25736 5.25 2.5 5.25C3.74264 5.25 4.75 4.24264 4.75 3Z" fill="#C9CFE5"/>
</svg>
