<svg width="13" height="13" viewBox="0 0 13 13" fill="none" xmlns="http://www.w3.org/2000/svg">
<rect width="13" height="13" rx="6.5" fill="#FF70C8"/>
<path d="M9.68961 3.65433C9.4028 3.4999 9.0829 3.79774 8.89537 3.97423C8.46518 4.39341 8.10115 4.87878 7.69299 5.32002C7.24071 5.80539 6.82153 6.29075 6.35823 6.76511C6.09348 7.02985 5.80668 7.31666 5.63018 7.64759C5.23306 7.26149 4.8911 6.84231 4.44986 6.50036C4.12996 6.25768 3.60047 6.08118 3.6115 6.66583C3.63356 7.42699 4.30645 8.24329 4.80285 8.76173C5.01244 8.98235 5.28822 9.214 5.60812 9.22503C5.99421 9.24709 6.39132 8.78379 6.62298 8.53008C7.03114 8.08883 7.36207 7.59242 7.73711 7.14016C8.22248 6.54449 8.71888 5.95982 9.19321 5.35311C9.49105 4.97806 10.4287 4.05143 9.68961 3.65433Z" fill="white"/>
</svg>
