<svg width="14" height="19" viewBox="0 0 14 19" fill="none" xmlns="http://www.w3.org/2000/svg">
<path d="M12.3765 7.28545H12.3505C11.9962 7.28348 11.6539 7.41366 11.3904 7.65051C11.1771 7.06013 10.6349 6.63575 9.99995 6.63575C9.61077 6.63848 9.23903 6.79825 8.96941 7.0791C8.72149 6.57718 8.22413 6.23671 7.65227 6.23671H7.62465C7.31816 6.232 7.01911 6.33169 6.77665 6.51922V2.94103C6.77665 2.07633 6.10343 1.37292 5.28455 1.37292C4.46659 1.37292 3.79686 2.07588 3.79641 2.93997L3.78958 10.0393L3.38781 9.55135C3.0355 9.11271 2.51689 8.84036 1.9558 8.79924C1.40624 8.76161 0.865638 8.95279 0.462042 9.32786L0.112461 9.6175C-0.00027233 9.71097 -0.0324386 9.87028 0.0350802 10.0002L3.43393 16.5334C4.05541 17.7274 5.23782 18.4722 6.51977 18.4722H10.3501V18.4688C12.2923 18.4688 13.8669 16.7836 13.8689 14.7143C13.8696 13.7885 13.8661 13.0984 13.8667 12.5392C13.8687 11.0428 13.8672 10.4907 13.8634 8.84218C13.8614 7.97945 13.1931 7.28545 12.3765 7.28545ZM13.2407 12.537C13.2401 13.0965 13.2392 13.7893 13.2383 14.7151C13.2366 16.4422 11.9328 17.8506 10.3319 17.8506H6.51992C5.47057 17.8506 4.49936 17.2338 3.98546 16.2463L0.702227 9.93735L0.864272 9.80216C0.868369 9.79882 0.872314 9.79487 0.876259 9.79138C1.15498 9.52905 1.53005 9.39431 1.91195 9.41935C2.30235 9.44924 2.66255 9.64011 2.90668 9.94615L3.85786 11.1035C3.94101 11.205 4.07908 11.2431 4.20258 11.199C4.32609 11.1548 4.40863 11.0377 4.40863 10.9066L4.41425 2.94027C4.41455 2.41863 4.80904 1.99425 5.28486 1.99425C5.76068 1.99425 6.15517 2.41909 6.15517 2.94103V7.74427C6.15517 7.76096 6.15441 7.77781 6.15441 7.7948C6.15441 7.80208 6.15517 7.80952 6.15517 7.81665V9.87028C6.15517 10.0419 6.2943 10.181 6.46591 10.181C6.63751 10.181 6.77665 10.0419 6.77665 9.87028V7.75474C6.77665 7.25146 7.16112 6.85818 7.62465 6.85818H7.65227C8.12839 6.85818 8.52455 7.27316 8.52455 7.7951V9.67425C8.52455 9.84585 8.66368 9.98499 8.83529 9.98499C9.00689 9.98499 9.14602 9.84585 9.14602 9.67425V8.19991C9.14602 7.67782 9.52322 7.25313 10.0019 7.25313C10.4779 7.25313 10.8551 7.67767 10.8551 8.19991V9.5908C10.8551 9.7624 10.9942 9.90154 11.1658 9.90154C11.3374 9.90154 11.4766 9.7624 11.4766 9.5908V8.83762C11.4766 8.31553 11.8744 7.90693 12.3505 7.90693H12.3765C12.8514 7.90693 13.2384 8.32251 13.2396 8.84293C13.2434 10.4902 13.2427 11.0418 13.2407 12.537Z" fill="#828282"/>
<path d="M2.80927 3.07522C2.98088 3.07522 3.12001 2.93608 3.12001 2.76448C3.12502 1.57873 4.08773 0.620263 5.27333 0.620263C6.45908 0.620263 7.42164 1.57873 7.42665 2.76448C7.42665 2.93608 7.56578 3.07522 7.73739 3.07522C7.90899 3.07522 8.04813 2.93608 8.04813 2.76448C8.04236 1.23597 6.80184 0 5.27333 0C3.74498 0 2.5043 1.23597 2.49854 2.76448C2.49854 2.93608 2.63767 3.07522 2.80927 3.07522Z" fill="#828282"/>
</svg>
