<svg width="18" height="16" viewBox="0 0 18 16" fill="none" xmlns="http://www.w3.org/2000/svg">
<path d="M9.00002 11.1666C8.84627 11.1666 8.69927 11.1036 8.59352 10.9926L4.65602 6.86763C4.31477 6.51063 4.56827 5.91663 5.06252 5.91663H7.12502V1.60413C7.12502 1.08738 7.54577 0.666626 8.06252 0.666626H9.93752C10.4543 0.666626 10.875 1.08738 10.875 1.60413V5.91663H12.9375C13.4318 5.91663 13.6853 6.51063 13.344 6.86763L9.40652 10.9926C9.30077 11.1036 9.15377 11.1666 9.00002 11.1666Z" fill="#EA0091"/>
<path d="M16.6875 15.6666H1.3125C0.58875 15.6666 0 15.0779 0 14.3541V13.9791C0 13.2554 0.58875 12.6666 1.3125 12.6666H16.6875C17.4112 12.6666 18 13.2554 18 13.9791V14.3541C18 15.0779 17.4112 15.6666 16.6875 15.6666Z" fill="#EA0091"/>
</svg>
