<svg width="12" height="12" viewBox="0 0 12 12" fill="none" xmlns="http://www.w3.org/2000/svg">
<path d="M6.99846 11.0599L6.94754 7.34644C6.94511 7.15745 7.09787 7.00282 7.28458 7.00528L10.9533 7.05927C11.2467 7.06418 11.3921 7.42252 11.1836 7.6336L10.1628 8.66689L11.8601 10.385L10.284 11.9803L8.58668 10.2622L7.56586 11.2955C7.35975 11.5042 7.00331 11.3569 6.99846 11.0599Z" fill="white"/>
<path d="M3.27344 10.2844L4.29427 11.3177C4.5028 11.5288 4.85682 11.3816 4.86167 11.0846L4.91501 7.37109C4.91744 7.18211 4.76468 7.02748 4.57797 7.02994L0.90929 7.08393C0.615892 7.08884 0.470406 7.44718 0.678936 7.65826L1.69734 8.68664L0 10.4047L1.5761 12.0001L3.27344 10.2844Z" fill="white"/>
<path d="M0.682964 4.34425C0.474434 4.55533 0.61992 4.91367 0.913317 4.91858L4.582 4.97257C4.7687 4.97503 4.92146 4.8204 4.91904 4.63141L4.86569 0.917938C4.86084 0.620958 4.50683 0.473696 4.2983 0.684772L3.27747 1.71807L1.58013 0L0.00402832 1.59535L1.70137 3.31341L0.682964 4.34425Z" fill="white"/>
<path d="M7.29101 4.97257L10.9597 4.91858C11.2531 4.91367 11.3986 4.55533 11.19 4.34425L10.1692 3.31341L11.8666 1.59535L10.2904 0L8.59311 1.71807L7.57228 0.684773C7.36375 0.473696 7.00973 0.620959 7.00488 0.917939L6.95154 4.63142C6.95154 4.8204 7.1043 4.97503 7.29101 4.97257Z" fill="white"/>
</svg>
