<svg width="18" height="13" viewBox="0 0 18 13" fill="none" xmlns="http://www.w3.org/2000/svg">
<path d="M17.3838 5.84868C15.5763 2.04107 12.844 0.124878 9.18134 0.124878C5.51673 0.124878 2.78639 2.04107 0.978875 5.85059C0.906375 6.00411 0.868774 6.17178 0.868774 6.34155C0.868774 6.51133 0.906375 6.679 0.978875 6.83252C2.78639 10.6401 5.51864 12.5563 9.18134 12.5563C12.8459 12.5563 15.5763 10.6401 17.3838 6.83061C17.5306 6.52173 17.5306 6.16328 17.3838 5.84868ZM9.18134 11.1835C6.10589 11.1835 3.85412 9.62387 2.26587 6.3406C3.85412 3.05733 6.10589 1.49768 9.18134 1.49768C12.2568 1.49768 14.5086 3.05733 16.0968 6.3406C14.5105 9.62387 12.2587 11.1835 9.18134 11.1835ZM9.10507 2.98487C7.2518 2.98487 5.74935 4.48732 5.74935 6.3406C5.74935 8.19388 7.2518 9.69633 9.10507 9.69633C10.9584 9.69633 12.4608 8.19388 12.4608 6.3406C12.4608 4.48732 10.9584 2.98487 9.10507 2.98487ZM9.10507 8.47606C7.92485 8.47606 6.96961 7.52083 6.96961 6.3406C6.96961 5.16038 7.92485 4.20514 9.10507 4.20514C10.2853 4.20514 11.2405 5.16038 11.2405 6.3406C11.2405 7.52083 10.2853 8.47606 9.10507 8.47606Z" fill="black"/>
</svg>
