<svg width="15" height="15" viewBox="0 0 15 15" fill="none" xmlns="http://www.w3.org/2000/svg">
<path d="M14.4642 0H0.535723C0.239847 0 0 0.239847 0 0.535723V3.21428C3.13894e-05 3.36608 0.0644739 3.51075 0.177319 3.61233L5.35714 8.27409V14.4642C5.35701 14.7601 5.59673 15.0001 5.89261 15.0002C5.97582 15.0002 6.05791 14.9809 6.13233 14.9437L9.34661 13.3366C9.52823 13.2458 9.64295 13.0602 9.64286 12.8571V8.27409L14.8227 3.61339C14.9358 3.5116 15.0003 3.36648 15 3.21428V0.535723C15 0.239847 14.7601 0 14.4642 0ZM13.9285 2.97587L8.74873 7.63657C8.63561 7.73837 8.57116 7.88348 8.57141 8.03569V12.526L6.42855 13.5975V8.03569C6.42852 7.88389 6.36408 7.73922 6.25123 7.63767L1.07142 2.97587V1.07142H13.9285V2.97587Z" fill="white"/>
</svg>
