<svg width="12" height="12" viewBox="0 0 12 12" fill="none" xmlns="http://www.w3.org/2000/svg">
<path d="M3 0.75V0H0.375C0.167883 0 0 0.167883 0 0.375V3H0.75V1.27875L4.23375 4.7625L4.7625 4.23375L1.27875 0.75H3Z" fill="white"/>
<path d="M11.625 0H9.00005V0.75H10.7213L7.23755 4.23375L7.7663 4.7625L11.25 1.27875V3H12V0.375C12 0.167883 11.8322 0 11.625 0Z" fill="white"/>
<path d="M11.25 10.7213L7.7663 7.23755L7.23755 7.7663L10.7213 11.25H9.00005V12H11.625C11.8322 12 12 11.8322 12 11.625V9.00005H11.25V10.7213Z" fill="white"/>
<path d="M4.23375 7.23376L0.75 10.7213V9.00001H0V11.625C0 11.8321 0.167883 12 0.375 12H3V11.25H1.27875L4.7625 7.76626L4.23375 7.23376Z" fill="white"/>
</svg>
