<svg width="19" height="17" viewBox="0 0 19 17" fill="#C9CFE5" xmlns="http://www.w3.org/2000/svg">
<path d="M9.89538 6.31555C8.85623 6.31555 8.01379 7.15795 8.01379 8.19714C8.01379 9.23628 8.85619 10.0787 9.89538 10.0787C10.9345 10.0787 11.777 9.23632 11.777 8.19714C11.777 7.15795 10.9346 6.31555 9.89538 6.31555ZM9.89538 9.18269C9.35105 9.18269 8.90978 8.74143 8.90978 8.19709C8.90978 7.65276 9.35105 7.2115 9.89538 7.2115C10.4397 7.2115 10.881 7.65276 10.881 8.19709C10.881 8.74143 10.4397 9.18269 9.89538 9.18269Z" fill="#C9CFE5"/>
<path d="M17.3992 2.01473L5.16904 0.625986C4.69437 0.558501 4.21345 0.697071 3.84748 1.0068C3.48154 1.29054 3.24698 1.71114 3.19789 2.17156L2.97391 4.00834H2.27948C1.29388 4.00834 0.554682 4.88191 0.554682 5.8675V15.0289C0.529858 15.9688 1.27163 16.7509 2.21152 16.7757C2.23416 16.7763 2.25684 16.7764 2.27948 16.7761H14.5769C15.5625 16.7761 16.4585 16.0145 16.4585 15.0289V14.6706C16.764 14.6115 17.0539 14.4895 17.3096 14.3122C17.6726 14.0066 17.9049 13.5739 17.9592 13.1026L18.9896 4.00834C19.0947 3.02048 18.3857 2.13182 17.3992 2.01473ZM15.5625 15.0289C15.5625 15.5217 15.0697 15.8801 14.5769 15.8801H2.27948C1.83431 15.8932 1.46285 15.5429 1.44977 15.0978C1.44908 15.0748 1.44938 15.0519 1.45067 15.0289V13.3714L4.92264 10.8178C5.33972 10.4976 5.92718 10.5261 6.31142 10.885L8.75299 13.0354C9.12377 13.3467 9.5905 13.5207 10.0746 13.5282C10.4531 13.5328 10.8254 13.432 11.1498 13.237L15.5625 10.6834V15.0289H15.5625ZM15.5625 9.63063L10.6793 12.4754C10.26 12.7238 9.72928 12.6788 9.35773 12.3634L6.89379 10.1906C6.1876 9.58381 5.15544 9.5466 4.40742 10.101L1.45067 12.2514V5.8675C1.45067 5.37471 1.78668 4.90433 2.27948 4.90433H14.5769C15.1034 4.92615 15.5286 5.34169 15.5625 5.8675V9.63063V9.63063ZM18.0945 3.8874C18.0942 3.89035 18.0939 3.89335 18.0936 3.89631L17.0408 12.9906C17.0426 13.2264 16.9351 13.4497 16.7496 13.5954C16.66 13.685 16.4584 13.7298 16.4584 13.7746V5.8675C16.423 4.84705 15.5976 4.03145 14.5768 4.00834H3.86986L4.07145 2.26117C4.11518 2.03492 4.23347 1.8299 4.40746 1.67877C4.60391 1.54294 4.84143 1.47961 5.07947 1.49955L17.2873 2.91072C17.7798 2.95749 18.1413 3.39477 18.0945 3.8874Z" fill="#C9CFE5"/>
</svg>
