<svg width="16" height="15" viewBox="0 0 16 15" fill="none" xmlns="http://www.w3.org/2000/svg">
<path d="M3.61168 4.21448H0.638478C0.36458 4.21448 0.142944 4.43611 0.142944 4.71001V13.6296C0.142944 13.9035 0.36458 14.1251 0.638478 14.1251H3.61168C3.88558 14.1251 4.10721 13.9035 4.10721 13.6296V4.71001C4.10721 4.43611 3.88558 4.21448 3.61168 4.21448Z" fill="#828282"/>
<path d="M14.1698 5.20527H11.2421C10.9861 5.20527 10.8579 5.03444 10.8148 4.96089C10.7717 4.88782 10.6846 4.6928 10.8085 4.46923L11.8407 2.61049C12.0672 2.20351 12.0904 1.72492 11.9051 1.29761C11.7197 0.869828 11.3539 0.559635 10.9014 0.446882L10.1736 0.264928C9.9965 0.220407 9.80874 0.277026 9.68534 0.413976L5.73365 4.8041C5.32377 5.26043 5.09827 5.84888 5.09827 6.46152V10.6561C5.09827 12.0222 6.20983 13.1338 7.57593 13.1338L12.5056 13.1333C13.6186 13.1333 14.6015 12.3837 14.8952 11.3109L15.9531 7.44725C15.984 7.31224 16 7.17384 16 7.03544C16 6.02646 15.1788 5.20525 14.1698 5.20525L14.1698 5.20527ZM14.992 7.20434L13.939 11.0491C13.7628 11.6927 13.1734 12.1427 12.5056 12.1427H7.57594C6.75618 12.1427 6.08934 11.4759 6.08934 10.6561V6.46152C6.08934 6.09374 6.22483 5.74048 6.47067 5.46707L10.2225 1.29859L10.6609 1.40796C10.8119 1.4457 10.9339 1.54926 10.9958 1.69202C11.0577 1.83429 11.05 1.9935 10.9745 2.12948L9.9423 3.98822C9.68389 4.45326 9.69067 5.00493 9.96069 5.46369C10.2307 5.92244 10.7098 6.19634 11.2421 6.19634H14.1698C14.6325 6.19634 15.0089 6.57283 15.0089 7.03546C15.0089 7.09837 15.0017 7.16176 14.992 7.20435V7.20434Z" fill="#828282"/>
</svg>
