<svg width="11" height="16" viewBox="0 0 11 16" fill="none" xmlns="http://www.w3.org/2000/svg">
<path d="M0.00194703 4.4396C0.0804773 4.01781 0.138239 3.59148 0.24273 3.17619C0.514016 2.09151 1.14226 1.29148 2.15796 0.787163C3.82721 -0.0460077 5.53671 -0.259175 7.32473 0.347831C8.49295 0.74297 9.29059 1.51765 9.75787 2.64977C10.3404 4.04354 10.4808 5.58294 10.1603 7.05934C9.80525 8.75298 8.65975 9.66934 7.00996 9.99624C5.63471 10.2685 4.264 10.2614 2.91535 9.82271C2.8712 9.81514 2.82645 9.81166 2.78166 9.81231C2.78166 9.97804 2.78166 10.1373 2.78166 10.2958C2.78166 11.4286 2.7849 12.5614 2.78166 13.6948C2.78166 14.6346 2.23065 15.1805 1.29802 15.185C0.865347 15.185 0.432674 15.1878 0 15.1935L0.00194703 4.4396ZM5.183 8.15377C5.98388 8.17392 6.74581 8.06083 7.45453 7.70599C8.11328 7.37714 8.57603 6.87217 8.63119 6.12024C8.71751 4.93742 8.27294 4.00092 7.22478 3.37831C6.7257 3.08196 6.24088 2.76026 5.75413 2.44311C5.39263 2.20719 5.02853 2.20459 4.66768 2.43726C4.18871 2.74596 3.71169 3.05921 3.21974 3.34712C2.51362 3.7611 2.05542 4.34341 1.84319 5.14019C1.53426 6.29961 1.98273 7.27056 3.08215 7.76513C3.75777 8.06733 4.46584 8.17132 5.183 8.15377Z" fill="#C9CFE5"/>
<path d="M5.85789 5.5568C5.85789 5.42682 5.8475 5.29684 5.85789 5.16686C5.87163 5.01045 5.94048 4.86403 6.05212 4.75378C6.16377 4.64353 6.31093 4.57663 6.46731 4.56505C6.84374 4.53581 7.14098 4.70218 7.1929 5.05118C7.24266 5.39 7.24441 5.73416 7.1981 6.07347C7.15202 6.41336 6.84763 6.59014 6.47704 6.56999C6.32033 6.55955 6.17239 6.49381 6.0595 6.38446C5.94662 6.27511 5.8761 6.12923 5.86048 5.97273C5.85334 5.8331 5.85334 5.69319 5.86048 5.55355L5.85789 5.5568Z" fill="#C9CFE5"/>
<path d="M3.18217 5.56069C3.18217 5.43071 3.17438 5.30073 3.18217 5.17075C3.20943 4.80746 3.50213 4.554 3.87986 4.5592C4.04783 4.55599 4.21038 4.61873 4.33276 4.73398C4.45514 4.84924 4.52762 5.00787 4.53471 5.17595C4.54769 5.42227 4.55288 5.67053 4.5425 5.91684C4.52498 6.32108 4.25369 6.57064 3.8552 6.57064C3.4567 6.57064 3.1984 6.32498 3.18217 5.91489C3.17763 5.79726 3.18217 5.67898 3.18217 5.56069Z" fill="#C9CFE5"/>
</svg>
