<svg width="9" height="13" viewBox="0 0 9 13" fill="none" xmlns="http://www.w3.org/2000/svg">
<path fill-rule="evenodd" clip-rule="evenodd" d="M3.95394 0.0140773C1.4326 0.170943 0.11505 1.59877 0 4.18078H2.54344C2.57529 3.28638 3.07449 2.61775 4.00399 2.51917C4.91637 2.42232 5.78195 2.63963 6.04411 3.26342C6.32729 3.93725 5.6916 4.72028 5.38935 5.04896C4.82992 5.65844 3.92122 6.10304 3.45019 6.76062C2.98847 7.40498 2.90636 8.2528 2.87082 9.29041H5.11245C5.14387 8.62698 5.18807 7.9915 5.48988 7.57918C5.98085 6.90925 6.71404 6.5953 7.32851 6.06621C7.91546 5.56051 8.53295 4.95103 8.63782 4.00766C8.95264 1.18429 6.64796 -0.154055 3.95394 0.0140773Z" fill="white"/>
<path d="M4.01157 13C4.7932 13 5.42684 12.376 5.42684 11.6062C5.42684 10.8364 4.7932 10.2124 4.01157 10.2124C3.22995 10.2124 2.59631 10.8364 2.59631 11.6062C2.59631 12.376 3.22995 13 4.01157 13Z" fill="white"/>
</svg>
