<svg width="11" height="12" viewBox="0 0 11 12" fill="none" xmlns="http://www.w3.org/2000/svg">
<path d="M8.90225 11.0732C9.56824 10.4091 10.0964 9.61989 10.4564 8.75097C10.8164 7.88205 11.0012 6.95055 11 6.01001C11.0012 5.06947 10.8164 4.13797 10.4564 3.26905C10.0964 2.40013 9.56824 1.61092 8.90225 0.946777L8.30579 1.5424C8.89343 2.12841 9.35946 2.82478 9.6771 3.59149C9.99474 4.35819 10.1577 5.18011 10.1567 6.01001C10.1567 7.75476 9.44902 9.33439 8.30579 10.4776L8.90225 11.0732Z" fill="black"/>
<path d="M7.71013 9.88203C8.21938 9.37412 8.62325 8.77058 8.89853 8.1061C9.1738 7.44162 9.31506 6.72929 9.31419 6.01004C9.31506 5.2908 9.1738 4.57847 8.89853 3.91399C8.62325 3.24951 8.21938 2.64597 7.71013 2.13806L7.1145 2.73369C7.54541 3.16347 7.88714 3.67416 8.12005 4.23643C8.35297 4.7987 8.47248 5.40145 8.47172 6.01004C8.4727 6.61873 8.35338 7.2216 8.1206 7.78401C7.88783 8.34643 7.5462 8.85729 7.11534 9.28724L7.71013 9.88203Z" fill="black"/>
<path d="M6.51884 8.69069C6.8714 8.33904 7.15099 7.92118 7.34155 7.46113C7.5321 7.00108 7.62986 6.50791 7.62922 6.00996C7.62986 5.512 7.5321 5.01883 7.34155 4.55878C7.15099 4.09873 6.8714 3.68088 6.51884 3.32922L5.92322 3.92485C6.19743 4.19837 6.41488 4.52339 6.56307 4.88122C6.71127 5.23906 6.78728 5.62265 6.78675 6.00996C6.78723 6.39726 6.7112 6.78084 6.56301 7.13866C6.41482 7.49649 6.19739 7.82151 5.92322 8.09507L6.51884 8.69069Z" fill="black"/>
<path fill-rule="evenodd" clip-rule="evenodd" d="M4.84239 2.26102C4.91376 2.2954 4.97398 2.34921 5.01616 2.41626C5.05833 2.48332 5.08074 2.56091 5.08081 2.64013V9.37987C5.0807 9.45914 5.05822 9.53676 5.01597 9.60382C4.97371 9.67088 4.9134 9.72466 4.84195 9.75898C4.7705 9.7933 4.69082 9.80676 4.61206 9.79782C4.5333 9.78888 4.45866 9.7579 4.39673 9.70844L2.40597 8.11617H0.447235C0.335517 8.11617 0.228374 8.07179 0.149378 7.99279C0.0703808 7.9138 0.026001 7.80665 0.026001 7.69494V4.32507C0.026001 4.21335 0.0703808 4.1062 0.149378 4.02721C0.228374 3.94821 0.335517 3.90383 0.447235 3.90383H2.40597L4.39673 2.31157C4.45871 2.26202 4.53342 2.23099 4.61227 2.22204C4.69112 2.2131 4.77089 2.22661 4.84239 2.26102Z" fill="black"/>
</svg>
