<svg width="6" height="20" viewBox="0 0 6 20" fill="none" xmlns="http://www.w3.org/2000/svg">
<path d="M3.25 12.5C4.63071 12.5 5.75 11.3807 5.75 10C5.75 8.61929 4.63071 7.5 3.25 7.5C1.86929 7.5 0.75 8.61929 0.75 10C0.75 11.3807 1.86929 12.5 3.25 12.5Z" fill="white"/>
<path d="M3.25 20C4.63071 20 5.75 18.8807 5.75 17.5C5.75 16.1193 4.63071 15 3.25 15C1.86929 15 0.75 16.1193 0.75 17.5C0.75 18.8807 1.86929 20 3.25 20Z" fill="white"/>
<path d="M3.25 5C4.63071 5 5.75 3.88071 5.75 2.5C5.75 1.11929 4.63071 0 3.25 0C1.86929 0 0.75 1.11929 0.75 2.5C0.75 3.88071 1.86929 5 3.25 5Z" fill="white"/>
</svg>
