<svg width="15" height="15" viewBox="0 0 15 15" fill="none" xmlns="http://www.w3.org/2000/svg">
<path d="M14.6434 1.09235L13.2963 0.144438C13.1175 0.0197052 12.8983 -0.0268239 12.6865 0.0149684C12.4747 0.0567607 12.2874 0.183495 12.1653 0.367614L5.57084 10.4447L2.53963 7.30394C2.38649 7.147 2.17978 7.05897 1.96439 7.05897C1.74899 7.05897 1.54228 7.147 1.38914 7.30394L0.238648 8.49836C0.162994 8.57665 0.102976 8.66962 0.0620267 8.77196C0.0210774 8.8743 0 8.984 0 9.09479C0 9.20558 0.0210774 9.31528 0.0620267 9.41762C0.102976 9.51996 0.162994 9.61293 0.238648 9.69122L4.8984 14.5218C5.16032 14.7916 5.57009 15 5.93932 15C6.30856 15 6.6808 14.7589 6.92021 14.3981L14.8603 2.26266C14.9811 2.07758 15.026 1.85044 14.9854 1.63105C14.9447 1.41165 14.8218 1.21793 14.6434 1.09235Z" fill="#FF70C8"/>
</svg>
