<svg width="20" height="20" viewBox="0 0 20 20" fill="none" xmlns="http://www.w3.org/2000/svg">
<path d="M16.4284 9.99995C16.0339 9.99995 15.7141 10.3197 15.7141 10.7142V17.857C15.7141 18.2515 15.3943 18.5713 14.9998 18.5713H2.14278C1.74828 18.5713 1.42849 18.2515 1.42849 17.857V3.57143C1.42849 3.17693 1.74828 2.85713 2.14278 2.85713H10.7141C11.1086 2.85713 11.4284 2.53734 11.4284 2.14284C11.4284 1.74834 11.1086 1.42859 10.7141 1.42859H2.14278C0.95932 1.42859 -6.10352e-05 2.38797 -6.10352e-05 3.57143V17.857C-6.10352e-05 19.0405 0.95932 19.9999 2.14278 19.9999H14.9998C16.1833 19.9999 17.1427 19.0405 17.1427 17.857V10.7142C17.1427 10.3197 16.8229 9.99995 16.4284 9.99995Z" fill="#101f36"/>
<path d="M19.1994 0.800982C18.6865 0.288039 17.9909 -7.24041e-05 17.2656 1.13006e-05C16.5398 -0.00208132 15.8435 0.286532 15.332 0.801442L5.9235 10.2092C5.84544 10.2878 5.78656 10.3834 5.75136 10.4885L4.32281 14.7741C4.19814 15.1484 4.40049 15.5529 4.77478 15.6775C4.84739 15.7017 4.92344 15.7141 4.99994 15.7141C5.07662 15.714 5.15283 15.7017 5.22565 15.6777L9.51133 14.2492C9.61659 14.214 9.71222 14.1549 9.79061 14.0763L19.1991 4.66785C20.267 3.60011 20.2671 1.86884 19.1994 0.800982ZM18.1891 3.65853L8.90347 12.9442L6.1292 13.8706L7.05276 11.0999L16.342 1.81427C16.8527 1.30459 17.6799 1.30543 18.1895 1.81611C18.433 2.06007 18.5702 2.39032 18.5712 2.73498C18.5721 3.08147 18.4345 3.41395 18.1891 3.65853Z" fill="#101f36"/>
</svg>
