<svg width="21" height="18" viewBox="0 0 21 18" fill="none" xmlns="http://www.w3.org/2000/svg">
<path d="M4.375 5H0.625C0.279541 5 0 5.26836 0 5.6V16.4C0 16.7316 0.279541 17 0.625 17H4.375C4.72046 17 5 16.7316 5 16.4V5.6C5 5.26836 4.72046 5 4.375 5Z" fill="white"/>
<path d="M18.5762 6.56241H14.699C14.36 6.56241 14.1901 6.33618 14.1331 6.23877C14.0761 6.142 13.9607 5.88373 14.1248 5.58765L15.4917 3.12607C15.7917 2.58709 15.8224 1.95327 15.577 1.38738C15.3315 0.820856 14.847 0.410058 14.2478 0.260737L13.2839 0.0197695C13.0494 -0.0391905 12.8007 0.0357913 12.6373 0.217158L7.40396 6.03113C6.86114 6.63546 6.5625 7.41476 6.5625 8.2261V13.7811C6.5625 15.5903 8.03457 17.0624 9.84375 17.0624L16.3723 17.0618C17.8463 17.0618 19.1479 16.069 19.5369 14.6482L20.9378 9.53154C20.9788 9.35274 21 9.16945 21 8.98616C21 7.64994 19.9124 6.56239 18.5762 6.56239L18.5762 6.56241ZM19.6651 9.20984L18.2705 14.3015C18.0373 15.1539 17.2567 15.7499 16.3723 15.7499H9.84375C8.75812 15.7499 7.875 14.8668 7.875 13.7812V8.22611C7.875 7.73905 8.05445 7.27121 8.38001 6.90912L13.3487 1.38868L13.9293 1.53351C14.1292 1.5835 14.2907 1.72065 14.3728 1.90971C14.4548 2.09812 14.4445 2.30897 14.3446 2.48905L12.9776 4.95063C12.6354 5.56651 12.6444 6.2971 13.002 6.90464C13.3596 7.51219 13.994 7.87492 14.699 7.87492H18.5762C19.1889 7.87492 19.6875 8.37351 19.6875 8.98618C19.6875 9.0695 19.6779 9.15345 19.6651 9.20985V9.20984Z" fill="white"/>
</svg>
