<svg width="20" height="19" viewBox="0 0 20 19" fill="none" xmlns="http://www.w3.org/2000/svg">
<path d="M2.58951 16.5932C2.32927 16.6009 2.1338 16.3089 2.2408 16.0712C2.36517 15.7634 2.81356 15.7634 2.93788 16.0712C3.04511 16.3086 2.84949 16.6007 2.58951 16.5932Z" fill="#EA0091"/>
<path d="M13.4851 17.2551H6.16387C5.95541 17.2551 5.78644 17.0861 5.78644 16.8777V14.4723C5.78644 14.2639 5.95541 14.0948 6.16387 14.0948H13.4851C13.6935 14.0948 13.8625 14.2639 13.8625 14.4723V16.8777C13.8625 17.0861 13.6935 17.2551 13.4851 17.2551ZM6.5413 16.5002H13.1077V14.8497H6.5413V16.5002Z" fill="#EA0091"/>
<path d="M10.0262 13.4637C9.37322 13.4637 8.84198 12.9318 8.84198 12.278C8.84198 11.6243 9.37322 11.0924 10.0262 11.0924C10.6791 11.0924 11.2104 11.6243 11.2104 12.278C11.2104 12.9318 10.6791 13.4637 10.0262 13.4637ZM10.0262 11.8473C9.78945 11.8473 9.59685 12.0405 9.59685 12.278C9.59685 12.5156 9.78945 12.7088 10.0262 12.7088C10.2629 12.7088 10.4555 12.5156 10.4555 12.278C10.4555 12.0405 10.2629 11.8473 10.0262 11.8473Z" fill="#EA0091"/>
<path d="M12.6783 13.4637C12.0253 13.4637 11.4941 12.9318 11.4941 12.278C11.4941 11.6243 12.0253 11.0924 12.6783 11.0924C13.3313 11.0924 13.8625 11.6243 13.8625 12.278C13.8625 12.9318 13.3313 13.4637 12.6783 13.4637ZM12.6783 11.8473C12.4416 11.8473 12.2489 12.0405 12.2489 12.278C12.2489 12.5156 12.4416 12.7088 12.6783 12.7088C12.915 12.7088 13.1076 12.5156 13.1076 12.278C13.1076 12.0405 12.915 11.8473 12.6783 11.8473Z" fill="#EA0091"/>
<path d="M11.3522 6.48576C10.0009 6.48576 8.90161 5.38478 8.90161 4.03153C8.90161 2.67824 10.0009 1.57727 11.3522 1.57727C12.7034 1.57727 13.8027 2.67824 13.8027 4.03153C13.8027 5.38478 12.7034 6.48576 11.3522 6.48576ZM11.3522 2.3321C10.4172 2.3321 9.65648 3.09444 9.65648 4.03149C9.65648 4.96851 10.4172 5.73085 11.3522 5.73085C12.2872 5.73085 13.0479 4.96851 13.0479 4.03149C13.0479 3.09444 12.2872 2.3321 11.3522 2.3321Z" fill="#EA0091"/>
<path d="M19.1514 8.36113C19.0434 8.29165 18.9075 8.28183 18.7906 8.33513L15.8606 9.67015V8.66542C15.8606 7.91708 15.2526 7.30828 14.5052 7.30828H13.6948C14.7129 6.57599 15.3773 5.38005 15.3773 4.03159C15.3773 1.80859 13.5716 5.90738e-10 11.3522 5.90738e-10C9.74035 5.90738e-10 8.34675 0.953888 7.70451 2.32763C7.06227 0.953888 5.66871 5.90738e-10 4.05684 5.90738e-10C1.83746 -3.77428e-05 0.0317799 1.80855 0.0317799 4.03159C0.0317799 5.38005 0.696176 6.57599 1.7143 7.30828H1.3554C0.608008 7.30828 0 7.91708 0 8.66542V17.6438C0 18.3921 0.608008 19.0009 1.3554 19.0009H14.5052C15.2526 19.0009 15.8606 18.3921 15.8606 17.6438V16.6391L18.7906 17.9741C18.8405 17.9969 18.8939 18.0081 18.9471 18.0081C19.0185 18.0081 19.0895 17.9879 19.1514 17.9481C19.2593 17.8786 19.3246 17.759 19.3246 17.6306V8.67859C19.3246 8.55019 19.2593 8.43058 19.1514 8.36113ZM11.3522 0.754829C13.1554 0.754829 14.6225 2.22474 14.6225 4.03156C14.6225 5.83833 13.1554 7.30824 11.3522 7.30824C9.54899 7.30824 8.08195 5.83833 8.08195 4.03156C8.08198 2.22474 9.54899 0.754829 11.3522 0.754829ZM9.00964 7.30828H6.39946C6.9581 6.9065 7.41023 6.36511 7.70455 5.73556C7.99887 6.36511 8.451 6.90647 9.00964 7.30828ZM0.786647 4.03159C0.786647 2.22478 2.25366 0.754867 4.05692 0.754867C5.86011 0.754867 7.32715 2.22478 7.32715 4.03159C7.32715 5.83837 5.86015 7.30828 4.05692 7.30828C2.25366 7.30828 0.786647 5.83837 0.786647 4.03159ZM15.1058 17.6438C15.1058 17.9759 14.8363 18.2461 14.5052 18.2461H1.35544C1.02432 18.2461 0.754905 17.9759 0.754905 17.6438V8.66542C0.754905 8.33332 1.02432 8.06315 1.35544 8.06315H2.21199V14.6396C2.21199 14.848 2.381 15.0171 2.58942 15.0171C2.79784 15.0171 2.96685 14.848 2.96685 14.6396V8.06315H14.5052C14.8363 8.06315 15.1058 8.33332 15.1058 8.66542V17.6438ZM18.5697 17.0439L15.8606 15.8096V10.4997L18.5697 9.26531V17.0439Z" fill="#EA0091"/>
<path d="M4.05685 6.48576C2.70564 6.48576 1.60632 5.38478 1.60632 4.03153C1.60632 2.67824 2.70564 1.57727 4.05685 1.57727C5.40814 1.57727 6.50745 2.67824 6.50745 4.03153C6.50745 5.38478 5.40814 6.48576 4.05685 6.48576ZM4.05685 2.3321C3.12187 2.3321 2.36119 3.09444 2.36119 4.03149C2.36119 4.96851 3.12183 5.73085 4.05685 5.73085C4.99186 5.73085 5.75258 4.96851 5.75258 4.03149C5.75258 3.09444 4.9919 2.3321 4.05685 2.3321Z" fill="#EA0091"/>
</svg>
