<svg width="20" height="19" viewBox="0 0 20 19" fill="none" xmlns="http://www.w3.org/2000/svg">
<path d="M14.8336 6.15388H11.8083C11.3635 6.15488 10.9692 5.86825 10.8329 5.44507L9.89786 2.56744C9.85162 2.42722 9.72074 2.3324 9.573 2.3324C9.42526 2.3324 9.29439 2.42722 9.24815 2.56744L8.31314 5.44474C8.17676 5.86842 7.78212 6.15504 7.33707 6.15388H4.31171C4.16347 6.15371 4.03192 6.24903 3.98602 6.39009C3.94028 6.53115 3.99052 6.68573 4.11072 6.7727L6.55832 8.5504C6.91857 8.81115 7.06914 9.27456 6.93092 9.69707L5.99625 12.5744C5.95018 12.7153 6.00009 12.8698 6.11995 12.957C6.23981 13.0443 6.40207 13.0445 6.5221 12.9573L8.96953 11.1796C9.32894 10.9174 9.81639 10.9174 10.1758 11.1796L12.6232 12.9573C12.7431 13.0443 12.9054 13.0441 13.0252 12.957C13.1449 12.8698 13.195 12.7156 13.1491 12.5747L12.2144 9.69758C12.0762 9.27506 12.2269 8.81165 12.587 8.55123L15.0346 6.77337C15.1553 6.68657 15.2062 6.53165 15.1603 6.39026C15.1144 6.24886 14.9822 6.15321 14.8336 6.15388Z" fill="white"/>
<path d="M19.1455 2.39318C19.144 1.07206 18.0734 0.00150241 16.7523 0H2.39318C1.07206 0.00150241 0.00150241 1.07206 0 2.39318V13.3334C0.00150241 14.6546 1.07206 15.7251 2.39318 15.7266H3.76071C3.87423 15.7266 3.98023 15.7829 4.04384 15.8767C4.10744 15.9707 4.12046 16.09 4.07839 16.1954L3.03521 18.8036L9.42566 15.7608C9.47156 15.7386 9.52181 15.727 9.57273 15.7266H16.7523C18.0734 15.7251 19.144 14.6546 19.1455 13.3334V2.39318ZM15.4367 7.32545L12.9892 9.10331C12.8692 9.19028 12.8189 9.34469 12.8647 9.48559L13.7997 12.3632C13.9421 12.7857 13.7907 13.2516 13.4271 13.5099C13.0692 13.776 12.5792 13.776 12.2213 13.5099L9.77372 11.732C9.65386 11.6449 9.4916 11.6449 9.37174 11.732L6.92413 13.5099C6.56472 13.7711 6.07777 13.7711 5.71836 13.5101C5.35878 13.2488 5.20838 12.7859 5.34576 12.3632L6.28077 9.48592C6.32667 9.34486 6.27643 9.19028 6.15623 9.10331L3.7088 7.32545C3.34922 7.06436 3.19881 6.60128 3.3362 6.17877C3.47359 5.75609 3.86739 5.46996 4.31177 5.47013H7.33713C7.4852 5.47013 7.61641 5.37498 7.66232 5.23425L8.59699 2.35662C8.73405 1.93361 9.12801 1.64698 9.57273 1.64698C10.0174 1.64698 10.4114 1.93361 10.5485 2.35662L11.4831 5.23425C11.529 5.37498 11.6603 5.47013 11.8083 5.47013H14.8337C15.2781 5.46996 15.6719 5.75609 15.8093 6.17877C15.9466 6.60128 15.7962 7.06436 15.4367 7.32545Z" fill="white"/>
</svg>
