<svg width="21" height="21" viewBox="0 0 21 21" fill="none" xmlns="http://www.w3.org/2000/svg">
<path d="M14.774 7.45325C14.6215 9.34981 13.7974 11.0531 12.5508 12.3457H12.961C13.301 12.3457 13.5762 12.6208 13.5762 12.9609C13.5762 13.301 13.301 13.5761 12.961 13.5761H11.005C9.95374 14.2302 8.75457 14.6693 7.45331 14.7739C7.74928 18.2382 10.6505 21 14.1914 21C17.929 21 21 17.929 21 14.1914C21 10.6504 18.2382 7.74922 14.774 7.45325ZM15.4219 12.3457H16.6524C16.9924 12.3457 17.2676 12.6208 17.2676 12.9609C17.2676 13.301 16.9924 13.5761 16.6524 13.5761H15.4219C15.0818 13.5761 14.8067 13.301 14.8067 12.9609C14.8067 12.6208 15.0818 12.3457 15.4219 12.3457ZM17.3517 17.1101C17.099 17.337 16.7101 17.3163 16.4829 17.0632C15.3137 15.7583 13.0691 15.7583 11.8999 17.0632C11.6728 17.3162 11.2853 17.3384 11.0311 17.1101C10.7782 16.8836 10.7572 16.4949 10.9843 16.2413C11.8014 15.3299 12.9706 14.8066 14.1914 14.8066C15.4123 14.8066 16.5815 15.3299 17.3986 16.2413C17.6257 16.4949 17.6047 16.8836 17.3517 17.1101Z" fill="white"/>
<path d="M6.80865 9.88477C8.29448 9.88477 9.53697 8.82611 9.82293 7.42383H3.79437C4.08033 8.82611 5.32282 9.88477 6.80865 9.88477Z" fill="white"/>
<path d="M6.80859 13.5762C10.5402 13.5762 13.5762 10.5402 13.5762 6.80859C13.5762 3.07695 10.5402 0 6.80859 0C3.07695 0 0 3.07695 0 6.80859C0 10.5402 3.07695 13.5762 6.80859 13.5762ZM8.03906 3.73242H9.26953C9.60959 3.73242 9.88477 4.0076 9.88477 4.34766C9.88477 4.68772 9.60959 4.96289 9.26953 4.96289H8.03906C7.699 4.96289 7.42383 4.68772 7.42383 4.34766C7.42383 4.0076 7.699 3.73242 8.03906 3.73242ZM4.34766 3.73242H5.57812C5.91819 3.73242 6.19336 4.0076 6.19336 4.34766C6.19336 4.68772 5.91819 4.96289 5.57812 4.96289H4.34766C4.0076 4.96289 3.73242 4.68772 3.73242 4.34766C3.73242 4.0076 4.0076 3.73242 4.34766 3.73242ZM3.11719 6.19336H10.5C10.8401 6.19336 11.1152 6.46853 11.1152 6.80859C11.1152 9.18303 9.18303 11.1152 6.80859 11.1152C4.43416 11.1152 2.50195 9.18303 2.50195 6.80859C2.50195 6.46853 2.77713 6.19336 3.11719 6.19336Z" fill="white"/>
</svg>
