<svg width="16" height="19" viewBox="0 0 16 19" fill="none" xmlns="http://www.w3.org/2000/svg">
<path d="M0.706402 18.0839C0.316256 18.0839 0 17.7676 0 17.3775C0 13.8329 2.88371 10.9492 6.42826 10.9492H7.48786C8.21323 10.9492 8.92549 11.0693 9.60484 11.3061C9.97323 11.4346 10.1678 11.8374 10.0393 12.2057C9.91089 12.5741 9.5081 12.7686 9.13974 12.6402C8.61026 12.4556 8.0545 12.362 7.48786 12.362H6.42826C3.66273 12.362 1.4128 14.612 1.4128 17.3775C1.4128 17.7676 1.09655 18.0839 0.706402 18.0839ZM11.6556 4.76821C11.6556 2.13902 9.51661 0 6.88742 0C4.25822 0 2.11921 2.13902 2.11921 4.76821C2.11921 7.3974 4.25822 9.53642 6.88742 9.53642C9.51661 9.53642 11.6556 7.3974 11.6556 4.76821ZM10.2428 4.76821C10.2428 6.61838 8.73759 8.12362 6.88742 8.12362C5.03725 8.12362 3.53201 6.61838 3.53201 4.76821C3.53201 2.91804 5.03725 1.4128 6.88742 1.4128C8.73759 1.4128 10.2428 2.91804 10.2428 4.76821ZM15.2936 13.8455H13.1744V11.7263C13.1744 11.3361 12.8581 11.0199 12.468 11.0199C12.0778 11.0199 11.7616 11.3361 11.7616 11.7263V13.8455H9.64238C9.25224 13.8455 8.93598 14.1617 8.93598 14.5519C8.93598 14.942 9.25224 15.2583 9.64238 15.2583H11.7616V17.3775C11.7616 17.7676 12.0778 18.0839 12.468 18.0839C12.8581 18.0839 13.1744 17.7676 13.1744 17.3775V15.2583H15.2936C15.6837 15.2583 16 14.942 16 14.5519C16 14.1617 15.6837 13.8455 15.2936 13.8455Z" fill="white"/>
</svg>
