<svg width="21" height="16" viewBox="0 0 21 16" fill="none" xmlns="http://www.w3.org/2000/svg">
<path d="M18.7514 0.928223H2.68973C1.44985 0.928223 0.441101 1.93698 0.441101 3.17686V12.8139C0.441101 14.0537 1.44985 15.0625 2.68973 15.0625H18.7514C19.9913 15.0625 21 14.0537 21 12.8139V3.17686C21 1.93698 19.9913 0.928223 18.7514 0.928223ZM2.68973 2.21316H18.7514C19.2828 2.21316 19.7151 2.6455 19.7151 3.17686V4.46179H1.72603V3.17686C1.72603 2.6455 2.15837 2.21316 2.68973 2.21316ZM18.7514 13.7776H2.68973C2.15837 13.7776 1.72603 13.3452 1.72603 12.8139V5.74672H19.7151V12.8139C19.7151 13.3452 19.2828 13.7776 18.7514 13.7776Z" fill="white"/>
<path d="M4.93838 11.8501H4.29591C3.94111 11.8501 3.65344 11.5625 3.65344 11.2077V10.5652C3.65344 10.2104 3.94111 9.92273 4.29591 9.92273H4.93838C5.29318 9.92273 5.58084 10.2104 5.58084 10.5652V11.2077C5.58084 11.5625 5.29318 11.8501 4.93838 11.8501Z" fill="white"/>
</svg>
