<svg width="18" height="18" viewBox="0 0 18 18" fill="none" xmlns="http://www.w3.org/2000/svg">
<path d="M17.5956 2.8587C17.3431 2.69175 17.0235 2.66321 16.7454 2.7828L14.07 3.93L15.2163 1.2558C15.4128 0.799237 15.202 0.269813 14.7454 0.0733125C14.6332 0.0250125 14.5123 7.50236e-05 14.3901 2.35561e-08H3.6099C3.11284 -0.000112476 2.70983 0.40275 2.70971 0.899813C2.70968 1.0218 2.73446 1.14251 2.7825 1.2546L3.93 3.93L1.2546 2.7825C0.797738 2.58667 0.26865 2.79825 0.0727875 3.25511C0.02475 3.3672 -3.74575e-05 3.48791 4.24856e-08 3.6099V14.3901C3.75425e-05 14.8872 0.40305 15.2901 0.900113 15.29C1.02199 15.29 1.14259 15.2652 1.2546 15.2172L3.93 14.07L2.7837 16.7442C2.5872 17.2008 2.79803 17.7302 3.25459 17.9267C3.36683 17.975 3.48773 17.9999 3.6099 18H14.3901C14.8872 18.0001 15.2902 17.5972 15.2903 17.1002C15.2903 16.9782 15.2655 16.8575 15.2175 16.7454L14.07 14.07L16.7442 15.2163C17.0223 15.3357 17.3419 15.3071 17.5944 15.1401C17.8473 14.9744 17.9998 14.6925 18 14.3901V3.6099C18.0005 3.30735 17.8484 3.0249 17.5956 2.8587ZM3.3339 1.0182C3.29374 0.925538 3.30356 0.818775 3.36 0.735C3.41479 0.650288 3.50903 0.5994 3.6099 0.6H14.3901C14.5558 0.59985 14.6902 0.734062 14.6904 0.899738C14.6904 0.940463 14.6822 0.980775 14.6661 1.0182L13.3023 4.2H4.6977L3.3339 1.0182ZM13.2 4.8V13.2H4.8V4.8H13.2ZM1.02 14.6658C0.868163 14.7321 0.691313 14.6627 0.62505 14.5108C0.608438 14.4728 0.599888 14.4317 0.6 14.3901V3.6099C0.6 3.44423 0.734325 3.3099 0.9 3.3099C0.941288 3.31001 0.982088 3.31849 1.02 3.3348L4.2 4.6977V13.3023L1.02 14.6658ZM14.6661 16.9818C14.7063 17.0745 14.6964 17.1812 14.64 17.265C14.5851 17.3499 14.4906 17.4008 14.3895 17.4H3.6099C3.44423 17.4002 3.30979 17.2659 3.30964 17.1003C3.3096 17.0595 3.31785 17.0192 3.3339 16.9818L4.6977 13.8H13.3023L14.6661 16.9818ZM17.4 14.3901C17.4004 14.5558 17.2664 14.6904 17.1007 14.6909C17.0592 14.691 17.0181 14.6824 16.98 14.6658L13.8 13.3023V4.6977L16.98 3.3342C17.1318 3.26794 17.3087 3.33731 17.375 3.48915C17.3916 3.52725 17.4001 3.56835 17.4 3.6099V14.3901Z" fill="white"/>
<path d="M8.99998 12.9C11.1539 12.9 12.9 11.1539 12.9 8.99998C12.8975 6.8471 11.1529 5.10245 8.99998 5.09998C6.84605 5.09998 5.09998 6.84605 5.09998 8.99998C5.09998 11.1539 6.84605 12.9 8.99998 12.9ZM8.99998 5.69998C10.8225 5.69998 12.3 7.17744 12.3 8.99998C12.2978 10.8216 10.8216 12.2978 8.99998 12.3C7.17744 12.3 5.69998 10.8225 5.69998 8.99998C5.69998 7.17744 7.17744 5.69998 8.99998 5.69998Z" fill="white"/>
<path d="M6.90005 8.99993C6.90136 7.84069 7.84081 6.90124 9.00005 6.89993C9.16572 6.89993 9.30005 6.7656 9.30005 6.59993C9.30005 6.43425 9.16572 6.29993 9.00005 6.29993C7.50957 6.30158 6.3017 7.50945 6.30005 8.99993C6.30005 9.1656 6.43437 9.29993 6.60005 9.29993C6.76572 9.29993 6.90005 9.1656 6.90005 8.99993Z" fill="white"/>
<path d="M8.69995 11.4C8.69995 11.5656 8.83428 11.7 8.99995 11.7C10.4904 11.6983 11.6983 10.4904 11.7 8.99995C11.7 8.83428 11.5656 8.69995 11.4 8.69995C11.2343 8.69995 11.1 8.83428 11.1 8.99995C11.0986 10.1592 10.1592 11.0986 8.99995 11.1C8.83428 11.1 8.69995 11.2343 8.69995 11.4Z" fill="white"/>
</svg>
