<svg width="22" height="18" viewBox="0 0 22 18" fill="none" xmlns="http://www.w3.org/2000/svg">
<path d="M21.0574 9.18236C20.8358 8.78848 20.3189 8.64078 19.9004 8.88695L17.094 10.5117L16.3801 10.9302V14.8198L17.0447 15.2137C17.0694 15.2137 17.0694 15.2383 17.094 15.2383L19.8511 16.8384C19.9742 16.9369 20.1465 16.9861 20.3189 16.9861C20.7866 16.9861 21.1559 16.6168 21.1559 16.1491V12.8504L21.1805 9.60086C21.1805 9.45316 21.1559 9.30545 21.0574 9.18236Z" fill="white"/>
<path d="M4.66209 7.92684C6.85305 7.92684 8.62551 6.15438 8.62551 3.96342C8.62551 1.77246 6.85305 0 4.66209 0C2.47114 0 0.698675 1.77246 0.698675 3.96342C0.674058 6.15438 2.47114 7.92684 4.66209 7.92684ZM4.66209 2.33866C5.57294 2.33866 6.28685 3.07719 6.28685 3.96342C6.28685 4.87427 5.54832 5.58817 4.66209 5.58817C3.77586 5.58817 3.03734 4.84965 3.03734 3.96342C3.01272 3.05257 3.75125 2.33866 4.66209 2.33866Z" fill="white"/>
<path d="M14.706 8.1484C14.066 8.46842 13.3521 8.66536 12.5889 8.66536C11.6535 8.66536 10.7672 8.39457 10.0287 7.90222H7.22231C6.48378 8.39457 5.59755 8.66536 4.66209 8.66536C3.89895 8.66536 3.18504 8.49304 2.54498 8.1484C1.97878 8.46842 1.5849 9.10848 1.5849 9.79777V15.8044C1.5849 16.9122 2.49575 17.7985 3.57892 17.7985H13.6967C14.8045 17.7985 15.6907 16.8876 15.6907 15.8044V9.79777C15.6661 9.10848 15.2722 8.46842 14.706 8.1484Z" fill="white"/>
<path d="M12.5889 7.92684C14.7799 7.92684 16.5523 6.15438 16.5523 3.96342C16.5523 1.77246 14.7799 0 12.5889 0C10.3979 0 8.62549 1.77246 8.62549 3.96342C8.62549 6.15438 10.3979 7.92684 12.5889 7.92684ZM12.5889 2.33866C13.4998 2.33866 14.2137 3.07719 14.2137 3.96342C14.2137 4.87427 13.4751 5.58817 12.5889 5.58817C11.7027 5.58817 10.9642 4.84965 10.9642 3.96342C10.9642 3.05257 11.6781 2.33866 12.5889 2.33866Z" fill="white"/>
</svg>
