<svg width="22" height="22" viewBox="0 0 22 22" fill="none" xmlns="http://www.w3.org/2000/svg">
<path d="M11 0C4.93453 0 0 4.93453 0 11C0 17.0655 4.93453 22 11 22C17.0655 22 22 17.0655 22 11C22 4.93453 17.0655 0 11 0ZM11 20.4286C5.80091 20.4286 1.57141 16.1991 1.57141 11C1.57141 5.80091 5.80091 1.57141 11 1.57141C16.1991 1.57141 20.4286 5.80091 20.4286 11C20.4286 16.1991 16.1991 20.4286 11 20.4286Z" fill="white"/>
<path d="M11 5.76184C10.566 5.76184 10.2142 6.11358 10.2142 6.54757V15.4523C10.2142 15.8863 10.566 16.238 11 16.238C11.4339 16.238 11.7857 15.8863 11.7857 15.4523V6.54757C11.7857 6.11358 11.4339 5.76184 11 5.76184Z" fill="white"/>
<path d="M15.4523 10.2142H6.54757C6.11358 10.2142 5.76184 10.566 5.76184 11C5.76184 11.4339 6.11358 11.7857 6.54757 11.7857H15.4523C15.8863 11.7857 16.238 11.4339 16.238 11C16.238 10.566 15.8863 10.2142 15.4523 10.2142Z" fill="white"/>
</svg>
