<svg width="21" height="22" viewBox="0 0 21 22" fill="none" xmlns="http://www.w3.org/2000/svg">
<path d="M1.79529 12.6664V18.9287C1.79529 20.0802 2.73214 21.0162 3.88273 21.0162H18.9124C20.0639 21.0162 20.9998 20.0802 20.9998 18.9287V12.6664H1.79529Z" fill="white"/>
<path d="M10.8682 2.89294L7.74371 3.63441L10.3614 7.48619L13.7456 6.71635L10.8682 2.89294Z" fill="white"/>
<path d="M6.87532 3.8407L3.50781 4.63892L6.09793 8.45481L9.48712 7.68411L6.87532 3.8407Z" fill="white"/>
<path d="M20.9865 4.62723L20.2759 1.93191C20.1123 1.27643 19.441 0.86398 18.7788 1.0151L15.9733 1.68141L18.6352 5.60584L20.6751 5.14161C20.7861 5.11656 20.8813 5.04724 20.9398 4.95041C20.9982 4.85358 21.0149 4.73745 20.9865 4.62723Z" fill="white"/>
<path d="M15.1041 1.88757L11.7549 2.68246L14.6373 6.51421L17.7609 5.80363L15.1041 1.88757Z" fill="white"/>
<path d="M6.00277 8.49231L4.66681 11.8314H7.94246L9.27841 8.49231H6.00277Z" fill="white"/>
<path d="M10.1777 8.49231L8.84174 11.8314H12.1173L13.4533 8.49231H10.1777Z" fill="white"/>
<path d="M20.5824 8.49231H18.5275L17.1916 11.8322H20.9999V8.90977C20.9999 8.6785 20.8137 8.49231 20.5824 8.49231Z" fill="white"/>
<path d="M14.3526 8.49231L13.0166 11.8314H16.2914L17.6282 8.49231H14.3526Z" fill="white"/>
<path d="M2.63947 4.84595L1.95894 5.00709C1.62747 5.08223 1.34691 5.28345 1.16906 5.57238C0.991212 5.86213 0.938608 6.20281 1.02127 6.5326L1.7953 9.59196V11.8314H3.76751L5.02081 8.69938L5.22453 8.65347L2.63947 4.84595Z" fill="white"/>
</svg>
