<svg width="20" height="20" viewBox="0 0 20 20" fill="none" xmlns="http://www.w3.org/2000/svg">
<path d="M8.17574 4.15892C7.11944 3.38473 6.03568 2.43055 5.26434 1.27354L4.5891 0.260722C4.44606 0.0461494 4.17941 -0.0493983 3.93164 0.0249774C3.68445 0.099939 3.51566 0.327675 3.51566 0.585764V9.77897C3.16956 9.57713 2.77256 9.45303 2.34377 9.45303C1.05114 9.45303 0 10.5042 0 11.7968C0 13.0894 1.05114 14.1405 2.34377 14.1405C3.6364 14.1405 4.68754 13.0894 4.68754 11.7968V2.50965C5.51552 3.55622 6.55123 4.42099 7.4828 5.1042C7.94054 5.43952 8.2032 5.95683 8.2032 6.52328C8.2032 7.49258 7.41468 8.28111 6.44537 8.28111C6.1215 8.28111 5.85943 8.54318 5.85943 8.86705C5.85943 9.19092 6.1215 9.45299 6.44537 9.45299C8.06074 9.45299 9.37508 8.13864 9.37508 6.52328C9.37508 5.59343 8.92703 4.70994 8.17574 4.15892Z" fill="white"/>
<path d="M19.2535 4.78782L10.9721 7.13159C10.7204 7.2037 10.547 7.4337 10.547 7.69523V15.6384C10.2009 15.4366 9.80387 15.3125 9.37508 15.3125C8.08245 15.3125 7.03131 16.3636 7.03131 17.6563C7.03131 18.9489 8.08245 20 9.37508 20C10.6677 20 11.7189 18.9489 11.7189 17.6563C11.7189 17.5227 11.7189 10.4812 11.7189 10.4812L18.8283 8.47223V13.2947C18.4822 13.0928 18.0852 12.9687 17.6564 12.9687C16.3638 12.9687 15.3126 14.0199 15.3126 15.3125C15.3126 16.6051 16.3638 17.6563 17.6564 17.6563C18.949 17.6563 20.0002 16.6051 20.0002 15.3125C20.0002 15.1789 20.0002 5.35146 20.0002 5.35146C20.0002 4.96391 19.6295 4.68161 19.2535 4.78782Z" fill="white"/>
</svg>
