<svg width="20" height="20" viewBox="0 0 20 20" fill="none" xmlns="http://www.w3.org/2000/svg">
<path d="M13.9119 14.6536C13.7703 14.5218 13.608 14.4056 13.4168 14.321C12.5109 13.9196 11.4371 14.281 11.0103 15.1083C10.5806 15.9413 10.9597 16.9398 11.8611 17.3375C12.757 17.7329 13.8373 17.3825 14.2675 16.5502V16.5496L15.7157 13.741L16.3661 15.4446L17.5 15.0735L15.8814 10.8334L13.9119 14.6536Z" fill="#AFAFB1"/>
<path d="M10.5564 5.97215C10.2308 5.73678 9.8502 5.57427 9.43142 5.51768C8.11072 5.34161 6.8846 6.18783 6.69255 7.42303C6.47851 8.78955 7.62085 10 9.08567 10C10.2657 10 11.3006 9.19088 11.4752 8.07099C11.4756 8.06874 11.4752 8.06652 11.4756 8.06427L11.4764 8.06442L12.3591 1.84655L18.6005 1.26404L18.0321 5.27376C17.7131 5.0426 17.3348 4.87532 16.9071 4.81749C15.5946 4.6401 14.3611 5.48276 14.1682 6.72284C13.9542 8.08935 15.0965 9.29981 16.5614 9.29981C17.7414 9.29981 18.7763 8.49069 18.9509 7.37024C18.9513 7.36798 18.9508 7.36577 18.9512 7.36352L18.9521 7.36367L20 0L11.2876 0.815732L10.5564 5.97215Z" fill="#AFAFB1"/>
<path d="M1.82076 20C2.97701 20 3.84607 19.031 3.63852 17.9892L2.83698 13.9208L6.34521 12.4689L6.77845 14.6853C6.5737 14.655 6.3636 14.6506 6.15277 14.6861C5.15046 14.8556 4.48418 15.7404 4.66874 16.6681C4.83532 17.5053 5.62656 18.0641 6.4817 18.0641C7.64058 18.0641 8.51054 17.0999 8.30246 16.0538L7.2724 10.8334L1.45275 13.2533L2.11496 16.6222C1.91185 16.5916 1.70171 16.5854 1.48826 16.6215C0.486439 16.7906 -0.152458 17.6804 0.031527 18.604C0.194494 19.424 0.947058 20 1.82076 20Z" fill="#AFAFB1"/>
<path d="M1.61123 8.88707C2.40978 9.39804 3.48672 9.18989 4.01764 8.41504C4.27427 8.04133 4.36472 7.59336 4.27257 7.15408L3.62869 4.09129L5.19341 5.09383L5.83331 4.16067L1.93851 1.66663L2.81351 5.83414C2.09172 5.73403 1.47061 6.05322 1.12279 6.56076C0.590749 7.33724 0.814303 8.377 1.61123 8.88707Z" fill="#AFAFB1"/>
</svg>
