<svg width="19" height="22" viewBox="0 0 19 22" fill="none" xmlns="http://www.w3.org/2000/svg">
<path d="M5.73958 2.75175H5.54167C5.65052 2.75175 5.73958 2.66122 5.73958 2.55057V2.75175H13.2604V2.55057C13.2604 2.66122 13.3495 2.75175 13.4583 2.75175H13.2604V4.56234H15.0417V2.55057C15.0417 1.66288 14.3316 0.941162 13.4583 0.941162H5.54167C4.66836 0.941162 3.95833 1.66288 3.95833 2.55057V4.56234H5.73958V2.75175ZM18.2083 4.56234H0.791667C0.353776 4.56234 0 4.92194 0 5.36704V6.17175C0 6.2824 0.0890625 6.37293 0.197917 6.37293H1.69219L2.30326 19.5248C2.34284 20.3824 3.04049 21.0588 3.88411 21.0588H15.1159C15.962 21.0588 16.6572 20.3849 16.6967 19.5248L17.3078 6.37293H18.8021C18.9109 6.37293 19 6.2824 19 6.17175V5.36704C19 4.92194 18.6462 4.56234 18.2083 4.56234ZM14.9254 19.2482H4.07461L3.47591 6.37293H15.5241L14.9254 19.2482Z" fill="white"/>
</svg>
