<svg width="22" height="19" viewBox="0 0 22 19" fill="none" xmlns="http://www.w3.org/2000/svg">
<path d="M11 12.8333C10.8121 12.8333 10.6324 12.7563 10.5032 12.6207L5.69068 7.579C5.27359 7.14267 5.58343 6.41667 6.18751 6.41667H8.70834V1.14583C8.70834 0.51425 9.22259 0 9.85418 0H12.1458C12.7774 0 13.2917 0.51425 13.2917 1.14583V6.41667H15.8125C16.4166 6.41667 16.7264 7.14267 16.3093 7.579L11.4968 12.6207C11.3676 12.7563 11.1879 12.8333 11 12.8333Z" fill="white"/>
<path d="M20.3958 18.3333H1.60417C0.719583 18.3333 0 17.6137 0 16.7291V16.2708C0 15.3862 0.719583 14.6666 1.60417 14.6666H20.3958C21.2804 14.6666 22 15.3862 22 16.2708V16.7291C22 17.6137 21.2804 18.3333 20.3958 18.3333Z" fill="white"/>
</svg>
