<svg width="20" height="20" viewBox="0 0 20 20" fill="none" xmlns="http://www.w3.org/2000/svg">
<path d="M3.05823 14.25C2.89643 14.25 2.76526 14.3812 2.76526 14.543V14.7344C2.76526 14.8962 2.89643 15.0273 3.05823 15.0273C3.22002 15.0273 3.3512 14.8962 3.3512 14.7344V14.543C3.3512 14.3812 3.22002 14.25 3.05823 14.25Z" fill="white"/>
<path d="M3.05823 17.0775C2.89643 17.0775 2.76526 17.2087 2.76526 17.3705V17.5619C2.76526 17.7237 2.89643 17.8549 3.05823 17.8549C3.22002 17.8549 3.3512 17.7237 3.3512 17.5619V17.3705C3.3512 17.2086 3.22002 17.0775 3.05823 17.0775Z" fill="white"/>
<path d="M3.99138 15.4134C4.06631 15.4134 4.14123 15.3849 4.19842 15.3277L4.33392 15.1924C4.44841 15.078 4.44849 14.8925 4.33416 14.7781C4.21978 14.6635 4.03427 14.6635 3.91986 14.7778L3.78435 14.9132C3.66986 15.0275 3.66978 15.213 3.78412 15.3275C3.84135 15.3848 3.91635 15.4134 3.99138 15.4134Z" fill="white"/>
<path d="M1.91815 16.7771L1.78264 16.9125C1.66815 17.0268 1.66807 17.2123 1.78241 17.3268C1.83964 17.3841 1.91464 17.4127 1.98968 17.4127C2.0646 17.4127 2.13952 17.3841 2.19671 17.327L2.33221 17.1916C2.44671 17.0773 2.44678 16.8918 2.33245 16.7773C2.21807 16.6628 2.03257 16.6628 1.91815 16.7771Z" fill="white"/>
<path d="M4.56953 15.7594H4.37793C4.21613 15.7594 4.08496 15.8906 4.08496 16.0524C4.08496 16.2142 4.21613 16.3453 4.37793 16.3453H4.56953C4.73133 16.3453 4.8625 16.2142 4.8625 16.0524C4.8625 15.8906 4.73133 15.7594 4.56953 15.7594Z" fill="white"/>
<path d="M2.03161 16.0524C2.03161 15.8906 1.90043 15.7594 1.73864 15.7594H1.547C1.3852 15.7594 1.25403 15.8906 1.25403 16.0524C1.25403 16.2142 1.3852 16.3453 1.547 16.3453H1.73864C1.90043 16.3453 2.03161 16.2142 2.03161 16.0524Z" fill="white"/>
<path d="M4.19842 16.7771C4.08392 16.6627 3.89842 16.6629 3.78412 16.7773C3.66978 16.8918 3.66986 17.0773 3.78435 17.1916L3.91986 17.327C3.97705 17.3841 4.05197 17.4127 4.12689 17.4127C4.20193 17.4127 4.27697 17.3841 4.33416 17.3268C4.44849 17.2123 4.44841 17.0268 4.33392 16.9125L4.19842 16.7771Z" fill="white"/>
<path d="M2.19671 14.7778C2.08221 14.6635 1.89671 14.6636 1.78241 14.7781C1.66807 14.8926 1.66815 15.078 1.78264 15.1924L1.91815 15.3277C1.97534 15.3849 2.05026 15.4134 2.12518 15.4134C2.20022 15.4134 2.27526 15.3848 2.33245 15.3275C2.44678 15.213 2.44671 15.0275 2.33221 14.9132L2.19671 14.7778Z" fill="white"/>
<path d="M16.2277 1.20105C16.3895 1.20105 16.5207 1.06988 16.5207 0.908081V0.716675C16.5207 0.554878 16.3895 0.423706 16.2277 0.423706C16.0659 0.423706 15.9348 0.554878 15.9348 0.716675V0.908081C15.9348 1.06988 16.0659 1.20105 16.2277 1.20105Z" fill="white"/>
<path d="M16.2277 4.02869C16.3895 4.02869 16.5207 3.89751 16.5207 3.73572V3.54431C16.5207 3.38251 16.3895 3.25134 16.2277 3.25134C16.0659 3.25134 15.9348 3.38251 15.9348 3.54431V3.73572C15.9348 3.89751 16.0659 4.02869 16.2277 4.02869Z" fill="white"/>
<path d="M17.1609 1.58726C17.2358 1.58726 17.3107 1.55871 17.3679 1.50156L17.5034 1.36621C17.6179 1.25187 17.618 1.06636 17.5037 0.951909C17.3893 0.837378 17.2038 0.837339 17.0894 0.951675L16.9538 1.08703C16.8394 1.20136 16.8393 1.38687 16.9536 1.50132C17.0108 1.55863 17.0858 1.58726 17.1609 1.58726Z" fill="white"/>
<path d="M15.0877 2.95092L14.9522 3.08624C14.8377 3.20057 14.8375 3.38608 14.9519 3.50053C15.0091 3.55784 15.0842 3.58647 15.1592 3.58647C15.2341 3.58647 15.309 3.55791 15.3662 3.50081L15.5017 3.36549C15.6162 3.25116 15.6163 3.06565 15.502 2.9512C15.3876 2.83667 15.2021 2.83659 15.0877 2.95092Z" fill="white"/>
<path d="M17.2543 2.22632C17.2543 2.38811 17.3855 2.51929 17.5473 2.51929H17.7389C17.9007 2.51929 18.0319 2.38811 18.0319 2.22632C18.0319 2.06452 17.9007 1.93335 17.7389 1.93335H17.5473C17.3855 1.93335 17.2543 2.06452 17.2543 2.22632Z" fill="white"/>
<path d="M14.7165 2.51929H14.9081C15.0699 2.51929 15.2011 2.38811 15.2011 2.22632C15.2011 2.06452 15.0699 1.93335 14.9081 1.93335H14.7165C14.5547 1.93335 14.4235 2.06452 14.4235 2.22632C14.4235 2.38811 14.5547 2.51929 14.7165 2.51929Z" fill="white"/>
<path d="M17.0893 3.50081C17.1465 3.55791 17.2214 3.58647 17.2964 3.58647C17.3714 3.58647 17.4464 3.55784 17.5037 3.50053C17.618 3.38604 17.6179 3.20057 17.5034 3.08624L17.3679 2.95092C17.2534 2.83659 17.0679 2.83667 16.9536 2.9512C16.8393 3.06569 16.8394 3.25116 16.9539 3.36549L17.0893 3.50081Z" fill="white"/>
<path d="M15.0875 1.50156C15.1447 1.55871 15.2196 1.58726 15.2946 1.58726C15.3696 1.58726 15.4446 1.55863 15.5018 1.50132C15.6162 1.38683 15.6161 1.20136 15.5016 1.08703L15.3661 0.951675C15.2516 0.8373 15.0661 0.837417 14.9518 0.951909C14.8374 1.0664 14.8375 1.25187 14.952 1.36621L15.0875 1.50156Z" fill="white"/>
<path d="M12.4805 2.48047C12.4805 2.28707 12.375 2.10926 12.2054 2.01648L11.0797 1.40078L10.464 0.275078C10.3712 0.10543 10.1934 0 10 0C9.8066 0 9.62879 0.10543 9.53601 0.275078L8.92031 1.40078L7.79461 2.01644C7.62492 2.10922 7.51953 2.28703 7.51953 2.48043C7.51953 2.67383 7.62496 2.85164 7.79461 2.94441L8.92031 3.56008L9.53598 4.68578C9.62875 4.85546 9.80656 4.96086 9.99996 4.96086C10.1934 4.96086 10.3712 4.85543 10.4639 4.68578L11.0796 3.56008L12.2053 2.94441C12.375 2.85168 12.4805 2.67387 12.4805 2.48047ZM10.7839 3.05406C10.695 3.10269 10.6222 3.17539 10.5736 3.26433L10 4.31312L9.4264 3.26437C9.37777 3.17543 9.30508 3.10269 9.21613 3.0541L8.1673 2.48047L9.21609 1.90687C9.30504 1.85824 9.37777 1.78555 9.42637 1.6966L10 0.647773L10.5736 1.69652C10.6222 1.78547 10.6949 1.8582 10.7839 1.9068L11.8327 2.48039L10.7839 3.05406Z" fill="white"/>
<path d="M4.96093 5.80298C4.96093 5.60958 4.8555 5.43177 4.68586 5.33899L3.56015 4.72333L2.94449 3.59763C2.85168 3.42794 2.67387 3.32251 2.48047 3.32251C2.28707 3.32251 2.10926 3.42794 2.01648 3.59763L1.67144 4.22845C1.59379 4.3704 1.64594 4.54841 1.78789 4.62606C1.9298 4.70372 2.10785 4.65153 2.18551 4.50962L2.48047 3.97032L3.0541 5.01915C3.10277 5.10809 3.17547 5.18079 3.26433 5.22938L4.31316 5.80298L3.26437 6.37657C3.17543 6.4252 3.10273 6.49786 3.0541 6.5868L2.48047 7.63563L1.90683 6.5868C1.8582 6.4979 1.78551 6.4252 1.6966 6.37661L0.647773 5.80302L1.19387 5.50434C1.33582 5.42673 1.38797 5.24868 1.31031 5.10673C1.23266 4.96473 1.05461 4.91255 0.912695 4.99028L0.275039 5.33903C0.10543 5.43177 0 5.60958 0 5.80298C0 5.99637 0.10543 6.17419 0.275078 6.26696L1.40078 6.88262L2.0164 8.00829C2.10922 8.17797 2.28703 8.28337 2.48043 8.28337C2.67383 8.28337 2.85164 8.17797 2.94441 8.00829L3.56008 6.88262L4.68578 6.26696C4.8555 6.17419 4.96093 5.99637 4.96093 5.80298Z" fill="white"/>
<path d="M19.7249 6.91728L18.8305 6.42814C18.6886 6.35049 18.5106 6.40267 18.4329 6.54459C18.3553 6.68654 18.4074 6.86455 18.5494 6.94221L19.3521 7.38127L18.3034 7.95486C18.2144 8.00349 18.1417 8.07615 18.0931 8.1651L17.5195 9.21392L16.9459 8.1651C16.8973 8.07619 16.8246 8.00349 16.7357 7.9549L15.6868 7.38131L16.7356 6.80771C16.8246 6.75908 16.8973 6.68642 16.9459 6.59748L17.5195 5.54869L17.6761 5.83506C17.7537 5.97701 17.9317 6.02912 18.0737 5.9515C18.2157 5.87389 18.2678 5.69584 18.1902 5.55389L17.9835 5.176C17.8907 5.00631 17.7129 4.90088 17.5195 4.90088C17.3261 4.90088 17.1483 5.00631 17.0555 5.176L16.4398 6.30166L15.3141 6.91736C15.1445 7.01013 15.0391 7.18795 15.0391 7.38131C15.0391 7.57471 15.1445 7.75252 15.3141 7.84533L16.4398 8.46099L17.0555 9.58666C17.1483 9.75634 17.3261 9.86173 17.5195 9.86173C17.7129 9.86173 17.8907 9.75634 17.9835 9.58666L18.5991 8.46099L19.7249 7.84529C19.8945 7.75248 20 7.57467 20 7.38127C20 7.18787 19.8946 7.01006 19.7249 6.91728Z" fill="white"/>
<path d="M15.8882 9.59501C15.6474 9.40161 15.3364 9.32896 15.0348 9.39568C14.7324 9.46255 14.4803 9.66032 14.343 9.93829C11.8282 15.0302 11.4797 18.6685 11.4327 19.6623V19.6623C11.4251 19.8257 11.5409 19.9689 11.7022 19.9954C11.7199 19.9984 11.7375 19.9998 11.7548 19.9998C11.8964 19.9998 12.0244 19.9063 12.0647 19.7661C13.3155 15.4087 15.3026 12.1459 16.0989 10.9454C16.3903 10.5061 16.2997 9.92556 15.8882 9.59501ZM15.6105 10.6216C14.9833 11.5672 13.6308 13.7689 12.461 16.7689C12.8447 15.1043 13.5548 12.8572 14.8684 10.1977C14.9266 10.0799 15.0334 9.99607 15.1613 9.96778C15.1923 9.96095 15.2234 9.95755 15.2544 9.95755C15.3506 9.95755 15.4444 9.99013 15.5213 10.0519C15.695 10.1914 15.7334 10.4363 15.6105 10.6216Z" fill="white"/>
<path d="M8.89097 19.6533C8.83386 18.9007 8.6482 16.9058 8.15937 14.6418C7.55078 11.8232 6.69441 9.55947 5.61398 7.91346C5.46102 7.68041 5.21586 7.52002 4.94141 7.47346C4.66789 7.42709 4.38465 7.49721 4.16434 7.666C3.72992 7.99885 3.64074 8.60635 3.96133 9.04904C6.38953 12.4021 7.77316 17.6492 8.25535 19.7495C8.28976 19.8992 8.41957 20 8.56812 20C8.58461 20 8.60136 19.9988 8.61824 19.9962C8.7866 19.9706 8.90386 19.8233 8.89097 19.6534V19.6533ZM6.42094 12.2478C5.62793 10.4904 4.90375 9.35143 4.4359 8.70533C4.30289 8.52166 4.34012 8.2694 4.5207 8.13104C4.59438 8.07459 4.68176 8.04506 4.77231 8.04506C4.79586 8.04506 4.81957 8.04705 4.84336 8.05111C4.95953 8.0708 5.05922 8.13611 5.1241 8.23494C6.1648 9.82045 6.99328 12.0176 7.5866 14.7654C7.67 15.1516 7.74445 15.53 7.81078 15.8952C7.39242 14.5906 6.92805 13.3715 6.42094 12.2478Z" fill="white"/>
<path d="M9.99998 6.20117C9.72006 6.20117 9.45982 6.31301 9.26721 6.51609C9.07455 6.71918 8.97662 6.98496 8.99139 7.26453L9.64928 19.6946C9.65834 19.8655 9.79943 19.9996 9.97049 20H9.97127C10.142 20 10.2833 19.8666 10.2931 19.6961L10.8693 9.68367C10.8786 9.52211 10.7552 9.38363 10.5936 9.37433C10.4319 9.36531 10.2936 9.48843 10.2843 9.65L9.9822 14.8993L9.57654 7.23355C9.57033 7.11617 9.61146 7.00457 9.69232 6.91934C9.77318 6.83406 9.88248 6.78711 9.99998 6.78711C10.1179 6.78711 10.2274 6.8343 10.3083 6.92004C10.3892 7.00574 10.4301 7.11781 10.4233 7.23551L10.3568 8.39058C10.3475 8.55211 10.4709 8.69058 10.6325 8.69988C10.7933 8.70906 10.9325 8.58578 10.9418 8.42422L11.0083 7.26918C11.0242 6.99289 10.9243 6.71902 10.7343 6.51781C10.5444 6.31656 10.2767 6.20117 9.99998 6.20117Z" fill="white"/>
</svg>
