<svg width="23" height="17" viewBox="0 0 23 17" fill="none" xmlns="http://www.w3.org/2000/svg">
<path d="M18.4475 0.304077H5.35375C2.84345 0.304077 0.80127 2.34626 0.80127 4.85655V11.8231C0.80127 14.3333 2.84345 16.3756 5.35375 16.3756H18.4475C20.9578 16.3756 23 14.3333 23 11.8231V4.85655C23 2.34626 20.9578 0.304077 18.4475 0.304077ZM21.6993 11.8231C21.6993 13.616 20.2406 15.0749 18.4475 15.0749H5.35375C3.5607 15.0749 2.10198 13.616 2.10198 11.8231V4.85655C2.10198 3.06351 3.5607 1.60478 5.35375 1.60478H18.4475C20.2406 1.60478 21.6993 3.06351 21.6993 4.85655V11.8231Z" fill="white"/>
<path d="M18.1355 5.3905H9.58932C9.2301 5.3905 8.93896 5.68164 8.93896 6.04086C8.93896 6.40008 9.2301 6.69121 9.58932 6.69121H18.1355C18.4948 6.69121 18.7859 6.40008 18.7859 6.04086C18.7859 5.68164 18.4948 5.3905 18.1355 5.3905Z" fill="white"/>
<path d="M5.66573 6.69121H7.64813C8.00735 6.69121 8.29848 6.40008 8.29848 6.04086C8.29848 5.68164 8.00735 5.3905 7.64813 5.3905H5.66573C5.30652 5.3905 5.01538 5.68164 5.01538 6.04086C5.01538 6.40008 5.30652 6.69121 5.66573 6.69121Z" fill="white"/>
<path d="M5.66573 8.99016H14.212C14.5712 8.99016 14.8623 8.69886 14.8623 8.33981C14.8623 7.98059 14.5712 7.68945 14.212 7.68945H5.66573C5.30652 7.68945 5.01538 7.98059 5.01538 8.33981C5.01538 8.69886 5.30652 8.99016 5.66573 8.99016Z" fill="white"/>
<path d="M18.1356 7.68945H16.1532C15.7939 7.68945 15.5028 7.98059 15.5028 8.33981C15.5028 8.69886 15.7939 8.99016 16.1532 8.99016H18.1356C18.4948 8.99016 18.7859 8.69886 18.7859 8.33981C18.7859 7.98059 18.4948 7.68945 18.1356 7.68945Z" fill="white"/>
<path d="M18.1355 9.98828H9.58932C9.2301 9.98828 8.93896 10.2796 8.93896 10.6386C8.93896 10.9979 9.2301 11.289 9.58932 11.289H18.1355C18.4948 11.289 18.7859 10.9979 18.7859 10.6386C18.7859 10.2796 18.4948 9.98828 18.1355 9.98828Z" fill="white"/>
<path d="M7.64813 9.98828H5.66573C5.30652 9.98828 5.01538 10.2796 5.01538 10.6386C5.01538 10.9979 5.30652 11.289 5.66573 11.289H7.64813C8.00735 11.289 8.29848 10.9979 8.29848 10.6386C8.29848 10.2796 8.00735 9.98828 7.64813 9.98828Z" fill="white"/>
</svg>
