<svg width="10" height="17" viewBox="0 0 10 17" fill="none" xmlns="http://www.w3.org/2000/svg">
<path d="M8.25514 14.6167C8.25514 14.4825 8.21749 14.3761 8.1422 14.2975C8.06853 14.2173 7.94249 14.1437 7.76407 14.0765C7.58565 14.0094 7.43178 13.9431 7.30246 13.8777C7.17314 13.8105 7.06183 13.7344 6.96853 13.6493C6.87686 13.5626 6.80484 13.4611 6.75246 13.3448C6.70171 13.2286 6.67634 13.0903 6.67634 12.9299C6.67634 12.6532 6.76473 12.4265 6.94152 12.2497C7.11831 12.073 7.3532 11.9698 7.64621 11.9404V11.4149H8.03907V11.9477C8.3288 11.9887 8.55552 12.1098 8.71921 12.3111C8.8829 12.5108 8.96474 12.7703 8.96474 13.0895H8.25514C8.25514 12.8931 8.21422 12.7466 8.13237 12.65C8.05217 12.5518 7.94413 12.5027 7.80827 12.5027C7.67404 12.5027 7.57009 12.5411 7.49643 12.6181C7.42277 12.6934 7.38594 12.7981 7.38594 12.9323C7.38594 13.0567 7.42195 13.1566 7.49398 13.2319C7.566 13.3072 7.69941 13.3841 7.8942 13.4627C8.09063 13.5413 8.25187 13.6158 8.37791 13.6861C8.50395 13.7549 8.61035 13.8335 8.69711 13.9219C8.78387 14.0086 8.85016 14.1085 8.89599 14.2214C8.94183 14.3327 8.96474 14.4629 8.96474 14.6118C8.96474 14.8901 8.87799 15.116 8.70447 15.2895C8.53096 15.463 8.29197 15.5653 7.98751 15.5964V16.085H7.5971V15.5989C7.26154 15.5629 7.00127 15.4442 6.8163 15.2428C6.63296 15.0399 6.5413 14.7706 6.5413 14.435H7.2509C7.2509 14.6298 7.29673 14.7796 7.3884 14.8844C7.4817 14.9875 7.61511 15.039 7.78862 15.039C7.93267 15.039 8.04644 15.0014 8.12992 14.9261C8.2134 14.8492 8.25514 14.746 8.25514 14.6167Z" fill="#AFAFB1"/>
<path d="M0.00167859 4.32701C0.0693819 3.96343 0.11918 3.59592 0.209265 3.23794C0.443149 2.30292 0.984775 1.61328 1.86044 1.17855C3.29956 0.46034 4.77336 0.276587 6.31487 0.799837C7.32203 1.14045 8.00969 1.80824 8.41255 2.78415C8.91474 3.9856 9.03585 5.3126 8.75946 6.58528C8.4534 8.04523 7.46583 8.83514 6.0435 9.11694C4.85785 9.35167 3.67612 9.34551 2.51341 8.96736C2.47535 8.96083 2.43677 8.95783 2.39815 8.9584C2.39815 9.10125 2.39815 9.23851 2.39815 9.3752C2.39815 10.3517 2.40095 11.3281 2.39815 12.3052C2.39815 13.1153 1.92311 13.5859 1.11906 13.5898C0.746042 13.5898 0.373021 13.5922 0 13.5971L0.00167859 4.32701ZM4.46842 7.5287C5.15888 7.54607 5.81577 7.44859 6.42678 7.1427C6.9947 6.85923 7.39365 6.42394 7.44121 5.77576C7.51562 4.75615 7.13235 3.94886 6.2287 3.41217C5.79842 3.1567 5.38045 2.87939 4.9608 2.606C4.64915 2.40264 4.33525 2.4004 4.02415 2.60096C3.61121 2.86707 3.19996 3.1371 2.77583 3.38528C2.16706 3.74214 1.77204 4.2441 1.58907 4.93094C1.32273 5.93038 1.70937 6.76735 2.65721 7.19369C3.23969 7.45419 3.85013 7.54383 4.46842 7.5287Z" fill="#AFAFB1"/>
<path d="M5.05085 5.28986C5.05085 5.17782 5.0419 5.06577 5.05085 4.95373C5.0627 4.8189 5.12206 4.69268 5.21831 4.59765C5.31456 4.50261 5.44144 4.44494 5.57625 4.43496C5.90078 4.40975 6.15705 4.55317 6.20181 4.85401C6.24471 5.14608 6.24621 5.44275 6.20629 5.73524C6.16656 6.02824 5.90414 6.18062 5.58465 6.16325C5.44954 6.15425 5.322 6.09759 5.22467 6.00332C5.12735 5.90906 5.06656 5.78331 5.05309 5.64841C5.04693 5.52804 5.04693 5.40743 5.05309 5.28706L5.05085 5.28986Z" fill="#AFAFB1"/>
<path d="M2.74322 5.29358C2.74322 5.18154 2.7365 5.06949 2.74322 4.95745C2.76672 4.64428 3.01907 4.42579 3.34472 4.43028C3.48953 4.42751 3.62967 4.48159 3.73518 4.58094C3.84068 4.6803 3.90317 4.81704 3.90928 4.96193C3.92047 5.17426 3.92495 5.38826 3.916 5.60059C3.90089 5.94905 3.66701 6.16417 3.32345 6.16417C2.9799 6.16417 2.75721 5.95241 2.74322 5.59891C2.7393 5.49751 2.74322 5.39554 2.74322 5.29358Z" fill="#AFAFB1"/>
</svg>
